<svg width="29" height="29" xmlns="http://www.w3.org/2000/svg" xmlns:xlink="http://www.w3.org/1999/xlink" xmlns:svgjs="http://svgjs.com/svgjs" viewBox="277 487 29 29"><svg width="29" height="29" xmlns="http://www.w3.org/2000/svg" xmlns:xlink="http://www.w3.org/1999/xlink" xmlns:svgjs="http://svgjs.com/svgjs" fill="none" x="277" y="487"><svg xmlns="http://www.w3.org/2000/svg" xmlns:xlink="http://www.w3.org/1999/xlink" width="29" height="29"><path paint-order="stroke fill markers" d="M14.5 29C6.481 29 0 22.518 0 14.5 0 6.48 6.48 0 14.5 0 22.518 0 29 6.481 29 14.5 29 22.518 22.518 29 14.5 29z"/></svg></svg><svg width="14" height="14" xmlns="http://www.w3.org/2000/svg" xmlns:xlink="http://www.w3.org/1999/xlink" xmlns:svgjs="http://svgjs.com/svgjs" viewBox="0 0.003 14 13.995" fill="#de4848" x="284" y="495"><svg xmlns="http://www.w3.org/2000/svg" xmlns:xlink="http://www.w3.org/1999/xlink" width="14" height="14" viewBox="0.84 0.161 12.974 12.969"><path paint-order="stroke fill markers" fill-rule="evenodd" d="M12.368.16L.84 11.69l1.441 1.44L13.814 1.598 12.368.161z"/></svg></svg><svg width="14" height="14" xmlns="http://www.w3.org/2000/svg" xmlns:xlink="http://www.w3.org/1999/xlink" xmlns:svgjs="http://svgjs.com/svgjs" viewBox="0.003 0 13.995 14" fill="#de4848" x="284" y="495"><svg xmlns="http://www.w3.org/2000/svg" width="14" height="14" viewBox="0.842 0.159 12.969 12.974"><path paint-order="stroke fill markers" fill-rule="evenodd" d="M.842 1.604L12.37 13.132l1.441-1.441L2.28.159.842 1.604z"/></svg></svg></svg>