<svg width="27" height="27" xmlns="http://www.w3.org/2000/svg" xmlns:xlink="http://www.w3.org/1999/xlink" xmlns:svgjs="http://svgjs.com/svgjs" fill="#4ca8c1"><svg xmlns="http://www.w3.org/2000/svg" width="27" height="27" viewBox="0.622 0.327 26.377 26.378"><path paint-order="stroke fill markers" fill-rule="evenodd" d="M24.527.327H3.095A2.473 2.473 0 0 0 .622 2.8v21.432a2.473 2.473 0 0 0 2.473 2.473h21.432A2.473 2.473 0 0 0 27 24.232V2.8A2.473 2.473 0 0 0 24.527.327zm.825 16.148l-3.537-3.536a.825.825 0 0 0-1.162 0l-4.369 4.36-5.185-5.185a.825.825 0 0 0-1.162 0L2.27 19.772V2.8c0-.456.369-.825.824-.825h21.432c.455 0 .825.37.825.825v13.675z"/></svg></svg>