<svg width="32" height="33" xmlns="http://www.w3.org/2000/svg" xmlns:xlink="http://www.w3.org/1999/xlink" xmlns:svgjs="http://svgjs.com/svgjs" viewBox="296 485 32 33"><svg width="32" height="18" xmlns="http://www.w3.org/2000/svg" xmlns:xlink="http://www.w3.org/1999/xlink" xmlns:svgjs="http://svgjs.com/svgjs" viewBox="0 0.255 32 17.49" fill="#4ca8c1" x="296" y="494"><svg xmlns="http://www.w3.org/2000/svg" xmlns:xlink="http://www.w3.org/1999/xlink" width="32" height="18" viewBox="0.522 0.875 30.604 16.727"><path paint-order="stroke fill markers" fill-rule="evenodd" d="M28.338.875H3.31A2.791 2.791 0 0 0 .522 3.663v11.15a2.79 2.79 0 0 0 2.788 2.788h25.028a2.79 2.79 0 0 0 2.788-2.787V3.663A2.791 2.791 0 0 0 28.338.875zm-20.46 9.809l-1.024.004v2.143a.93.93 0 1 1-1.858 0l-.014-7.06a.932.932 0 0 1 .93-.931h1.966c1.633 0 2.961 1.31 2.961 2.922 0 1.611-1.328 2.922-2.961 2.922zm7.977 2.852c-.553.01-1.937.015-1.996.015h-.004a.93.93 0 0 1-.93-.926l-.013-6.854a.93.93 0 0 1 .93-.931h1.94c2.211 0 3.697 1.75 3.697 4.355 0 2.479-1.524 4.305-3.624 4.341zm9.523-5.33a.93.93 0 1 1 0 1.86H23.69v2.641a.93.93 0 1 1-1.858 0v-7.01a.93.93 0 0 1 .93-.93h2.84a.93.93 0 0 1 0 1.86h-1.912v1.58h1.687z"/></svg></svg><svg width="4" height="6" xmlns="http://www.w3.org/2000/svg" xmlns:xlink="http://www.w3.org/1999/xlink" xmlns:svgjs="http://svgjs.com/svgjs" viewBox="0.287 0 3.425 6" fill="#4ca8c1" x="310" y="500"><svg xmlns="http://www.w3.org/2000/svg" xmlns:xlink="http://www.w3.org/1999/xlink" width="4" height="6" viewBox="0.772 0.698 2.849 4.99"><path paint-order="stroke fill markers" fill-rule="evenodd" d="M1.782.698H.772c.002.839.006 4.183.009 4.99.387-.003.8-.006 1.042-.01C3.064 5.656 3.62 4.416 3.62 3.195c0-.585-.133-2.497-1.84-2.497z"/></svg></svg><svg width="3" height="3" xmlns="http://www.w3.org/2000/svg" xmlns:xlink="http://www.w3.org/1999/xlink" xmlns:svgjs="http://svgjs.com/svgjs" viewBox="0 0.004 3 2.991" fill="#4ca8c1" x="302" y="500"><svg xmlns="http://www.w3.org/2000/svg" xmlns:xlink="http://www.w3.org/1999/xlink" width="3" height="3" viewBox="0.844 0.698 2.137 2.131"><path paint-order="stroke fill markers" fill-rule="evenodd" d="M1.878.698H.844l.001 1.064.004 1.067 1.029-.003c.598 0 1.103-.488 1.103-1.064 0-.576-.505-1.064-1.103-1.064z"/></svg></svg><svg width="25" height="9" xmlns="http://www.w3.org/2000/svg" xmlns:xlink="http://www.w3.org/1999/xlink" xmlns:svgjs="http://svgjs.com/svgjs" viewBox="0 0.692 25 7.617" fill="#4ca8c1" x="299" y="485"><svg xmlns="http://www.w3.org/2000/svg" xmlns:xlink="http://www.w3.org/1999/xlink" width="25" height="9" viewBox="0.991 0.892 23.384 7.124"><path paint-order="stroke fill markers" fill-rule="evenodd" d="M24.375 8.016a4.63 4.63 0 0 0-.993-1.603l-3.86-4.071A4.667 4.667 0 0 0 16.15.892H3.779A2.791 2.791 0 0 0 .991 3.68v4.336h23.384z"/></svg></svg><svg width="25" height="5" xmlns="http://www.w3.org/2000/svg" xmlns:xlink="http://www.w3.org/1999/xlink" xmlns:svgjs="http://svgjs.com/svgjs" viewBox="0 0.308 25 4.385" fill="#4ca8c1" x="299" y="513"><svg xmlns="http://www.w3.org/2000/svg" width="25" height="5" viewBox="0.991 0.46 23.665 4.151"><path paint-order="stroke fill markers" fill-rule="evenodd" d="M.991.46v1.363A2.791 2.791 0 0 0 3.779 4.61h18.09a2.791 2.791 0 0 0 2.787-2.787V.46H.991z"/></svg></svg></svg>