<svg id="Group_3" data-name="Group 3" xmlns="http://www.w3.org/2000/svg" width="130.513" height="37.158" viewBox="0 0 130.513 37.158">
  <g id="Group_1" data-name="Group 1" transform="translate(0 0)">
    <path id="Path_1" data-name="Path 1" d="M191.839,450.04a4.3,4.3,0,0,0-3.585-1.919h-9.9l5.463,8.415a4.307,4.307,0,0,0,3.584,1.918h9.9Z" transform="translate(-157.284 -448.121)" fill="#dc1f26"/>
    <path id="Path_2" data-name="Path 2" d="M183.825,479.727a4.3,4.3,0,0,1,3.585-1.918h9.9l-5.464,8.415a4.3,4.3,0,0,1-3.584,1.918h-9.9Z" transform="translate(-157.284 -464.892)" fill="#bfc531"/>
    <path id="Path_3" data-name="Path 3" d="M152.183,479.95a8.657,8.657,0,0,1,2-2.141H143.676a4.3,4.3,0,0,0-3.584,1.918l-10.17,15.649h9.9a4.3,4.3,0,0,0,3.584-1.918Z" transform="translate(-129.921 -464.892)" fill="#1b4ba0"/>
    <path id="Path_4" data-name="Path 4" d="M240.982,482.5H242.3c.294,0,1.756.07,1.756-1.262,0-1.367-1.153-1.314-2.066-1.314h-1.009Zm-2.443-4.692h4.066c2.352,0,3.993.756,3.993,3.4,0,2.437-1.462,3.507-3.9,3.507h-1.713v3.426h-2.443Z" transform="translate(-191.282 -464.892)" fill="#181718"/>
    <path id="Path_5" data-name="Path 5" d="M262.5,480.086v1.726h4.2v2.274h-4.2v1.781h4.349v2.276h-6.787V477.809h6.787v2.277Z" transform="translate(-203.44 -464.892)" fill="#181718"/>
    <path id="Path_6" data-name="Path 6" d="M282.787,482.415h1.148c.8,0,1.694-.164,1.694-1.288s-.9-1.287-1.694-1.287h-1.148Zm6.43,5.727h-3.023l-2.962-3.961-.419-.014h-.026v3.975h-2.44V477.809H284.9a2.946,2.946,0,0,1,3.267,3.179,2.835,2.835,0,0,1-2.336,2.954Z" transform="translate(-214.9 -464.892)" fill="#181718"/>
    <path id="Path_7" data-name="Path 7" d="M305.795,488.142h-2.443v-8.057h-2.828v-2.277h8.1v2.277h-2.827Z" transform="translate(-226.298 -464.892)" fill="#181718"/>
    <path id="Path_8" data-name="Path 8" d="M322.316,481h-.023l-1.008,3.29h2.03Zm-1.7,5.345-.649,1.8h-2.592l3.616-10.333h2.664l3.538,10.333h-2.6l-.611-1.8Z" transform="translate(-235.816 -464.892)" fill="#181718"/>
    <path id="Path_9" data-name="Path 9" d="M343.278,477.809h2.4l1.907,5.523,2.018-5.523h2.429l1.42,10.333h-2.44l-.689-5.948H350.3l-2.253,5.948h-.974l-2.156-5.948H344.9l-.785,5.948h-2.429Z" transform="translate(-249.551 -464.892)" fill="#181718"/>
    <rect id="Rectangle_19" data-name="Rectangle 19" width="2.441" height="10.333" transform="translate(105.487 12.916)" fill="#181718"/>
    <path id="Path_10" data-name="Path 10" d="M382.918,477.809h2.441l4.473,6.317h.028v-6.317H392.3v10.333h-2.439l-4.476-6.33h-.025v6.33h-2.441Z" transform="translate(-272.844 -464.892)" fill="#181718"/>
    <path id="Path_11" data-name="Path 11" d="M412.283,481h-.026l-1.007,3.29h2.029Zm-1.706,5.345-.648,1.8h-2.592l3.613-10.333h2.668l3.535,10.333h-2.6l-.608-1.8Z" transform="translate(-286.639 -464.892)" fill="#181718"/>
  </g>
  <g id="Group_2" data-name="Group 2" transform="translate(47.34 30.364)">
    <path id="Path_12" data-name="Path 12" d="M240.921,524.81h-.693v-5.574h-1.5v-.643h3.71v.643h-1.517Z" transform="translate(-238.728 -518.296)" fill="#dc1f26"/>
    <path id="Path_13" data-name="Path 13" d="M249.525,524.81h-.693v-6.217h.9c1.179,0,2.276.313,2.276,1.715a1.625,1.625,0,0,1-1.558,1.715l1.979,2.787h-.849l-1.88-2.729h-.173Zm0-3.339h.214c.783,0,1.575-.149,1.575-1.113,0-1.023-.75-1.121-1.583-1.121h-.206Z" transform="translate(-244.436 -518.296)" fill="#dc1f26"/>
    <path id="Path_14" data-name="Path 14" d="M259.233,522.659l-.751,1.765h-.758l2.869-6.514,2.795,6.514h-.767l-.734-1.765Zm1.344-3.133-1.064,2.49h2.1Z" transform="translate(-249.459 -517.91)" fill="#dc1f26"/>
    <path id="Path_15" data-name="Path 15" d="M272.339,517.986l4.848,5.079V518.25h.693v6.5l-4.848-5.071v4.791h-.693Z" transform="translate(-257.716 -517.953)" fill="#dc1f26"/>
    <path id="Path_16" data-name="Path 16" d="M290.432,519.666a1.141,1.141,0,0,0-1.072-.677.987.987,0,0,0-1.031.965c0,.536.553.783.973.973l.412.181c.808.354,1.493.758,1.493,1.748a1.962,1.962,0,0,1-3.892.313l.677-.19a1.28,1.28,0,0,0,1.245,1.154,1.249,1.249,0,0,0,1.278-1.212c0-.726-.569-.973-1.146-1.237l-.379-.164c-.726-.33-1.352-.7-1.352-1.591a1.632,1.632,0,0,1,1.74-1.583,1.784,1.784,0,0,1,1.608.964Z" transform="translate(-266.176 -518.157)" fill="#dc1f26"/>
    <path id="Path_17" data-name="Path 17" d="M307.66,518.593h.932l-2.919,2.894,3.018,3.323h-.956l-2.547-2.853-.174.173v2.68h-.693v-6.217h.693v2.663Z" transform="translate(-275.783 -518.296)" fill="#dc1f26"/>
    <path id="Path_18" data-name="Path 18" d="M321.607,521.571a3.241,3.241,0,1,1-3.24-3.224A3.224,3.224,0,0,1,321.607,521.571Zm-5.788-.008a2.548,2.548,0,1,0,2.547-2.573A2.571,2.571,0,0,0,315.819,521.562Z" transform="translate(-281.887 -518.157)" fill="#dc1f26"/>
    <path id="Path_19" data-name="Path 19" d="M332.227,517.986l4.848,5.079V518.25h.693v6.5l-4.849-5.071v4.791h-.692Z" transform="translate(-291.548 -517.953)" fill="#dc1f26"/>
    <path id="Path_20" data-name="Path 20" d="M348.828,524.81h-.693v-5.574h-1.5v-.643h3.71v.643h-1.517Z" transform="translate(-299.687 -518.296)" fill="#dc1f26"/>
    <path id="Path_21" data-name="Path 21" d="M357.47,524.81h-.693v-6.217h.693Z" transform="translate(-305.416 -518.296)" fill="#dc1f26"/>
    <path id="Path_22" data-name="Path 22" d="M361.308,517.986l4.848,5.079V518.25h.693v6.5L362,519.676v4.791h-.692Z" transform="translate(-307.976 -517.953)" fill="#dc1f26"/>
    <path id="Path_23" data-name="Path 23" d="M376.967,518.593h3.224v.643H377.66v1.847h2.457v.643H377.66v2.441h2.531v.643h-3.224Z" transform="translate(-316.822 -518.296)" fill="#dc1f26"/>
    <path id="Path_24" data-name="Path 24" d="M387.128,517.986l4.848,5.079V518.25h.693v6.5l-4.848-5.071v4.791h-.693Z" transform="translate(-322.562 -517.953)" fill="#dc1f26"/>
    <path id="Path_25" data-name="Path 25" d="M403.729,524.81h-.693v-5.574h-1.5v-.643h3.71v.643h-1.517Z" transform="translate(-330.702 -518.296)" fill="#dc1f26"/>
    <path id="Path_26" data-name="Path 26" d="M410.306,522.659l-.75,1.765H408.8l2.87-6.514,2.8,6.514H413.7l-.734-1.765Zm1.344-3.133-1.063,2.49h2.1Z" transform="translate(-334.804 -517.91)" fill="#dc1f26"/>
    <path id="Path_27" data-name="Path 27" d="M424.011,524.167h1.715v.643h-2.408v-6.217h.693Z" transform="translate(-343.007 -518.296)" fill="#dc1f26"/>
  </g>
</svg>
