<svg xmlns="http://www.w3.org/2000/svg" width="236.845" height="65.669" viewBox="0 0 236.845 65.669">
  <g id="Group_339" data-name="Group 339" transform="translate(-469.649 -876)">
    <g id="Group_5" data-name="Group 5" transform="translate(469.649 876)">
      <path id="Path_1" data-name="Path 1" d="M430.319,65.669H269.31a53.059,53.059,0,0,1-34.385-15.04C221.6,37.309,193.474,0,193.474,0H430.319Z" transform="translate(-193.474 0)" fill="#fff"/>
    </g>
    <g id="Group_3" data-name="Group 3" transform="translate(544.692 888.332)">
      <g id="Group_1" data-name="Group 1" transform="translate(0 0)">
        <path id="Path_1-2" data-name="Path 1" d="M193.339,450.253a4.784,4.784,0,0,0-3.985-2.132h-11l6.071,9.352a4.787,4.787,0,0,0,3.983,2.132h11Z" transform="translate(-154.938 -448.121)" fill="#dc1f26"/>
        <path id="Path_2" data-name="Path 2" d="M184.433,479.94a4.783,4.783,0,0,1,3.984-2.131h11l-6.072,9.351a4.784,4.784,0,0,1-3.983,2.132h-11Z" transform="translate(-154.938 -463.455)" fill="#bfc531"/>
        <path id="Path_3" data-name="Path 3" d="M154.661,480.188a9.62,9.62,0,0,1,2.226-2.379H145.207a4.78,4.78,0,0,0-3.983,2.131l-11.3,17.39h11a4.781,4.781,0,0,0,3.983-2.132Z" transform="translate(-129.921 -463.455)" fill="#1b4ba0"/>
        <path id="Path_4" data-name="Path 4" d="M241.253,483.023h1.466c.327,0,1.951.078,1.951-1.4,0-1.519-1.281-1.461-2.3-1.461h-1.121Zm-2.714-5.214h4.519c2.613,0,4.438.84,4.438,3.779,0,2.709-1.625,3.9-4.338,3.9h-1.9v3.808h-2.714Z" transform="translate(-186.022 -463.455)" fill="#181718"/>
        <path id="Path_5" data-name="Path 5" d="M262.77,480.339v1.918h4.668v2.527H262.77v1.979H267.6v2.53h-7.542V477.809H267.6v2.53Z" transform="translate(-197.138 -463.455)" fill="#181718"/>
        <path id="Path_6" data-name="Path 6" d="M283.058,482.928h1.276c.886,0,1.882-.182,1.882-1.431s-1-1.431-1.882-1.431h-1.276Zm7.145,6.365h-3.36l-3.291-4.4-.466-.016h-.029v4.418h-2.711V477.809h5.064c2.065,0,3.631,1.082,3.631,3.533a3.15,3.15,0,0,1-2.6,3.283Z" transform="translate(-207.615 -463.455)" fill="#181718"/>
        <path id="Path_7" data-name="Path 7" d="M306.381,489.292h-2.715v-8.954h-3.143v-2.53h9v2.53h-3.141Z" transform="translate(-218.036 -463.455)" fill="#181718"/>
        <path id="Path_8" data-name="Path 8" d="M322.866,481.357h-.026l-1.12,3.656h2.256Zm-1.894,5.94-.721,1.995h-2.88l4.018-11.483h2.96l3.931,11.483h-2.893l-.678-1.995Z" transform="translate(-226.738 -463.455)" fill="#181718"/>
        <path id="Path_9" data-name="Path 9" d="M343.456,477.809h2.671l2.119,6.137,2.243-6.137h2.7l1.578,11.484h-2.711l-.765-6.61h-.027l-2.5,6.61h-1.082l-2.4-6.61h-.026l-.872,6.61h-2.7Z" transform="translate(-239.296 -463.455)" fill="#181718"/>
        <rect id="Rectangle_19" data-name="Rectangle 19" width="2.712" height="11.484" transform="translate(117.229 14.354)" fill="#181718"/>
        <path id="Path_10" data-name="Path 10" d="M382.918,477.809h2.712l4.97,7.02h.031v-7.02h2.711v11.484h-2.711l-4.974-7.035h-.027v7.035h-2.712Z" transform="translate(-260.592 -463.455)" fill="#181718"/>
        <path id="Path_11" data-name="Path 11" d="M412.834,481.357h-.029l-1.119,3.656h2.255Zm-1.9,5.94-.72,1.995h-2.881l4.015-11.483h2.965l3.928,11.483h-2.894l-.676-1.995Z" transform="translate(-273.205 -463.455)" fill="#181718"/>
      </g>
      <g id="Group_2" data-name="Group 2" transform="translate(52.609 33.743)">
        <path id="Path_12" data-name="Path 12" d="M241.165,525.5h-.77v-6.194h-1.668v-.715h4.123v.715h-1.686Z" transform="translate(-238.728 -518.263)" fill="#dc1f26"/>
        <path id="Path_13" data-name="Path 13" d="M249.6,525.5h-.77v-6.909h1c1.31,0,2.529.348,2.529,1.905a1.806,1.806,0,0,1-1.732,1.906l2.2,3.1h-.944l-2.089-3.033H249.6Zm0-3.711h.238c.87,0,1.75-.165,1.75-1.237,0-1.136-.834-1.246-1.759-1.246H249.6Z" transform="translate(-243.947 -518.263)" fill="#dc1f26"/>
        <path id="Path_14" data-name="Path 14" d="M259.4,523.188l-.834,1.961h-.843l3.189-7.239,3.106,7.239h-.852l-.815-1.961Zm1.493-3.482-1.182,2.767h2.336Z" transform="translate(-248.539 -517.91)" fill="#dc1f26"/>
        <path id="Path_15" data-name="Path 15" d="M272.339,517.986l5.388,5.644v-5.351h.77v7.22l-5.387-5.635v5.324h-.77Z" transform="translate(-256.088 -517.949)" fill="#dc1f26"/>
        <path id="Path_16" data-name="Path 16" d="M290.779,519.813a1.268,1.268,0,0,0-1.191-.752,1.1,1.1,0,0,0-1.146,1.072c0,.6.614.87,1.082,1.081l.458.2c.9.394,1.659.843,1.659,1.943a2.181,2.181,0,0,1-4.325.348l.752-.211a1.423,1.423,0,0,0,1.383,1.283,1.388,1.388,0,0,0,1.421-1.347c0-.806-.632-1.081-1.274-1.375l-.421-.183c-.806-.366-1.5-.779-1.5-1.769a1.813,1.813,0,0,1,1.934-1.759,1.982,1.982,0,0,1,1.787,1.071Z" transform="translate(-263.823 -518.136)" fill="#dc1f26"/>
        <path id="Path_17" data-name="Path 17" d="M308.032,518.593h1.036l-3.244,3.216,3.354,3.693h-1.063l-2.831-3.17-.193.193V525.5h-.77v-6.909h.77v2.959Z" transform="translate(-272.606 -518.263)" fill="#dc1f26"/>
        <path id="Path_18" data-name="Path 18" d="M322.328,521.929a3.6,3.6,0,1,1-3.6-3.582A3.583,3.583,0,0,1,322.328,521.929Zm-6.432-.009a2.832,2.832,0,1,0,2.831-2.859A2.857,2.857,0,0,0,315.9,521.92Z" transform="translate(-278.187 -518.136)" fill="#dc1f26"/>
        <path id="Path_19" data-name="Path 19" d="M332.227,517.986l5.388,5.644v-5.351h.77v7.22L333,519.864v5.324h-.769Z" transform="translate(-287.02 -517.949)" fill="#dc1f26"/>
        <path id="Path_20" data-name="Path 20" d="M349.072,525.5h-.77v-6.194h-1.668v-.715h4.123v.715h-1.686Z" transform="translate(-294.461 -518.263)" fill="#dc1f26"/>
        <path id="Path_21" data-name="Path 21" d="M357.547,525.5h-.77v-6.909h.77Z" transform="translate(-299.7 -518.263)" fill="#dc1f26"/>
        <path id="Path_22" data-name="Path 22" d="M361.308,517.986l5.388,5.644v-5.351h.77v7.22l-5.388-5.635v5.324h-.769Z" transform="translate(-302.04 -517.949)" fill="#dc1f26"/>
        <path id="Path_23" data-name="Path 23" d="M376.967,518.593h3.583v.715h-2.813v2.053h2.73v.714h-2.73v2.713h2.813v.715h-3.583Z" transform="translate(-310.128 -518.263)" fill="#dc1f26"/>
        <path id="Path_24" data-name="Path 24" d="M387.128,517.986l5.388,5.644v-5.351h.77v7.22l-5.388-5.635v5.324h-.77Z" transform="translate(-315.376 -517.949)" fill="#dc1f26"/>
        <path id="Path_25" data-name="Path 25" d="M403.973,525.5h-.77v-6.194h-1.668v-.715h4.123v.715h-1.686Z" transform="translate(-322.817 -518.263)" fill="#dc1f26"/>
        <path id="Path_26" data-name="Path 26" d="M410.474,523.188l-.834,1.961H408.8l3.189-7.239,3.106,7.239h-.852l-.816-1.961Zm1.493-3.482-1.182,2.767h2.336Z" transform="translate(-326.568 -517.91)" fill="#dc1f26"/>
        <path id="Path_27" data-name="Path 27" d="M424.088,524.787h1.906v.715h-2.676v-6.909h.77Z" transform="translate(-334.068 -518.263)" fill="#dc1f26"/>
      </g>
    </g>
  </g>
</svg>
