<svg xmlns="http://www.w3.org/2000/svg" width="169.822" height="48.349" viewBox="0 0 169.822 48.349">
  <g id="Group_3" data-name="Group 3" transform="translate(-129.921 -448.121)">
    <g id="Group_1" data-name="Group 1" transform="translate(129.921 448.121)">
      <path id="Path_1" data-name="Path 1" d="M195.9,450.618a5.6,5.6,0,0,0-4.665-2.5H178.357l7.109,10.95a5.6,5.6,0,0,0,4.664,2.5h12.885Z" transform="translate(-150.936 -448.121)" fill="#fff"/>
      <path id="Path_2" data-name="Path 2" d="M185.471,480.3a5.6,5.6,0,0,1,4.664-2.5h12.879l-7.11,10.949a5.6,5.6,0,0,1-4.664,2.5H178.357Z" transform="translate(-150.936 -461.002)" fill="#fff"/>
      <path id="Path_3" data-name="Path 3" d="M158.888,480.595a11.266,11.266,0,0,1,2.606-2.786H147.818a5.6,5.6,0,0,0-4.664,2.5l-13.234,20.362H142.8a5.6,5.6,0,0,0,4.664-2.5Z" transform="translate(-129.921 -461.002)" fill="#fff"/>
      <path id="Path_4" data-name="Path 4" d="M241.717,483.914h1.716c.383,0,2.285.091,2.285-1.642,0-1.779-1.5-1.71-2.688-1.71h-1.313Zm-3.178-6.1h5.291c3.06,0,5.2.983,5.2,4.424,0,3.171-1.9,4.563-5.079,4.563h-2.229v4.458h-3.178Z" transform="translate(-177.048 -461.002)" fill="#fff"/>
      <path id="Path_5" data-name="Path 5" d="M263.233,480.771v2.246H268.7v2.959h-5.465v2.317h5.659v2.962h-8.831V477.809h8.831v2.962Z" transform="translate(-186.387 -461.002)" fill="#fff"/>
      <path id="Path_6" data-name="Path 6" d="M283.522,483.8h1.493c1.038,0,2.2-.213,2.2-1.676s-1.166-1.675-2.2-1.675h-1.493Zm8.366,7.452h-3.934L284.1,486.1l-.545-.019h-.033v5.173h-3.175V477.809h5.929c2.417,0,4.252,1.267,4.252,4.137a3.688,3.688,0,0,1-3.039,3.844Z" transform="translate(-195.188 -461.002)" fill="#fff"/>
      <path id="Path_7" data-name="Path 7" d="M307.382,491.255H304.2V480.771h-3.68v-2.963H311.06v2.963h-3.678Z" transform="translate(-203.942 -461.002)" fill="#fff"/>
      <path id="Path_8" data-name="Path 8" d="M323.8,481.964h-.03l-1.311,4.281h2.642Zm-2.218,6.955-.844,2.336h-3.372l4.705-13.445h3.466l4.6,13.445h-3.388l-.794-2.336Z" transform="translate(-211.252 -461.002)" fill="#fff"/>
      <path id="Path_9" data-name="Path 9" d="M343.758,477.809h3.128l2.481,7.186,2.626-7.186h3.161L357,491.255h-3.174l-.9-7.739H352.9l-2.932,7.739H348.7l-2.8-7.739h-.03l-1.021,7.739h-3.16Z" transform="translate(-221.801 -461.002)" fill="#fff"/>
      <rect id="Rectangle_19" data-name="Rectangle 19" width="3.176" height="13.446" transform="translate(137.259 16.807)" fill="#fff"/>
      <path id="Path_10" data-name="Path 10" d="M382.918,477.809h3.176l5.82,8.22h.036v-8.22h3.174v13.446h-3.174l-5.824-8.237h-.032v8.237h-3.176Z" transform="translate(-239.691 -461.002)" fill="#fff"/>
      <path id="Path_11" data-name="Path 11" d="M413.773,481.964h-.033l-1.311,4.281h2.64Zm-2.22,6.955-.843,2.336h-3.373l4.7-13.445h3.471l4.6,13.445H416.72l-.791-2.336Z" transform="translate(-250.286 -461.002)" fill="#fff"/>
    </g>
    <g id="Group_2" data-name="Group 2" transform="translate(191.519 487.63)">
      <path id="Path_12" data-name="Path 12" d="M241.582,526.682h-.9V519.43h-1.953v-.837h4.828v.837h-1.974Z" transform="translate(-238.728 -518.206)" fill="#fff"/>
      <path id="Path_13" data-name="Path 13" d="M249.733,526.682h-.9v-8.089H250c1.534,0,2.961.408,2.961,2.231a2.114,2.114,0,0,1-2.028,2.232l2.575,3.626H252.4l-2.446-3.551h-.225Zm0-4.345h.279c1.019,0,2.049-.194,2.049-1.449,0-1.33-.976-1.459-2.06-1.459h-.268Z" transform="translate(-243.112 -518.206)" fill="#fff"/>
      <path id="Path_14" data-name="Path 14" d="M259.687,524.09l-.977,2.3h-.987l3.734-8.476,3.637,8.476h-1l-.954-2.3Zm1.749-4.077-1.384,3.24h2.735Z" transform="translate(-246.97 -517.91)" fill="#fff"/>
      <path id="Path_15" data-name="Path 15" d="M272.339,517.986l6.308,6.609V518.33h.9v8.454l-6.308-6.6v6.234h-.9Z" transform="translate(-253.311 -517.943)" fill="#fff"/>
      <path id="Path_16" data-name="Path 16" d="M291.371,520.064a1.485,1.485,0,0,0-1.394-.88,1.284,1.284,0,0,0-1.342,1.256c0,.7.719,1.019,1.266,1.266l.536.236c1.051.461,1.942.987,1.942,2.275a2.553,2.553,0,0,1-5.064.408l.88-.247a1.666,1.666,0,0,0,1.62,1.5,1.626,1.626,0,0,0,1.663-1.577c0-.944-.74-1.266-1.492-1.609l-.493-.214c-.944-.429-1.76-.912-1.76-2.071a2.123,2.123,0,0,1,2.264-2.06,2.321,2.321,0,0,1,2.092,1.255Z" transform="translate(-259.809 -518.1)" fill="#fff"/>
      <path id="Path_17" data-name="Path 17" d="M308.666,518.593h1.213l-3.8,3.766,3.927,4.323h-1.244l-3.315-3.712-.226.225v3.487h-.9v-8.089h.9v3.465Z" transform="translate(-267.188 -518.206)" fill="#fff"/>
      <path id="Path_18" data-name="Path 18" d="M323.559,522.541a4.217,4.217,0,1,1-4.216-4.194A4.195,4.195,0,0,1,323.559,522.541Zm-7.531-.011a3.315,3.315,0,1,0,3.315-3.347A3.345,3.345,0,0,0,316.028,522.531Z" transform="translate(-271.876 -518.1)" fill="#fff"/>
      <path id="Path_19" data-name="Path 19" d="M332.227,517.986l6.308,6.609V518.33h.9v8.454l-6.309-6.6v6.234h-.9Z" transform="translate(-279.295 -517.943)" fill="#fff"/>
      <path id="Path_20" data-name="Path 20" d="M349.489,526.682h-.9V519.43h-1.953v-.837h4.828v.837h-1.974Z" transform="translate(-285.547 -518.206)" fill="#fff"/>
      <path id="Path_21" data-name="Path 21" d="M357.678,526.682h-.9v-8.089h.9Z" transform="translate(-289.947 -518.206)" fill="#fff"/>
      <path id="Path_22" data-name="Path 22" d="M361.308,517.986l6.308,6.609V518.33h.9v8.454l-6.309-6.6v6.234h-.9Z" transform="translate(-291.913 -517.943)" fill="#fff"/>
      <path id="Path_23" data-name="Path 23" d="M376.967,518.593h4.195v.837h-3.294v2.4h3.2v.837h-3.2v3.176h3.294v.837h-4.195Z" transform="translate(-298.707 -518.206)" fill="#fff"/>
      <path id="Path_24" data-name="Path 24" d="M387.128,517.986l6.308,6.609V518.33h.9v8.454l-6.308-6.6v6.234h-.9Z" transform="translate(-303.116 -517.943)" fill="#fff"/>
      <path id="Path_25" data-name="Path 25" d="M404.39,526.682h-.9V519.43h-1.953v-.837h4.828v.837H404.39Z" transform="translate(-309.367 -518.206)" fill="#fff"/>
      <path id="Path_26" data-name="Path 26" d="M410.761,524.09l-.977,2.3H408.8l3.734-8.476,3.637,8.476h-1l-.955-2.3Zm1.748-4.077-1.384,3.24h2.736Z" transform="translate(-312.518 -517.91)" fill="#fff"/>
      <path id="Path_27" data-name="Path 27" d="M424.219,525.846h2.232v.837h-3.133v-8.089h.9Z" transform="translate(-318.818 -518.206)" fill="#fff"/>
    </g>
  </g>
</svg>
