<svg width="170" height="49" xmlns="http://www.w3.org/2000/svg" xmlns:xlink="http://www.w3.org/1999/xlink" xmlns:svgjs="http://svgjs.com/svgjs" viewBox="95 45 170 49"><svg width="170" height="40" xmlns="http://www.w3.org/2000/svg" xmlns:xlink="http://www.w3.org/1999/xlink" xmlns:svgjs="http://svgjs.com/svgjs" viewBox="95 45 170 40" x="95" y="45"><svg width="26" height="14" xmlns="http://www.w3.org/2000/svg" xmlns:xlink="http://www.w3.org/1999/xlink" xmlns:svgjs="http://svgjs.com/svgjs" viewBox="0.163 0 25.673 14" fill="#fff" x="122" y="45"><svg xmlns="http://www.w3.org/2000/svg" xmlns:xlink="http://www.w3.org/1999/xlink" width="26" height="14" viewBox="0.42 0.052 24.657 13.446"><path paint-order="stroke fill markers" fill-rule="evenodd" d="M17.963 2.548A5.601 5.601 0 0 0 13.297.052H.42l7.109 10.95a5.605 5.605 0 0 0 4.664 2.496h12.885l-7.115-10.95z"/></svg></svg><svg width="26" height="15" xmlns="http://www.w3.org/2000/svg" xmlns:xlink="http://www.w3.org/1999/xlink" xmlns:svgjs="http://svgjs.com/svgjs" viewBox="0 0.411 26 14.177" fill="#fff" x="122" y="61"><svg xmlns="http://www.w3.org/2000/svg" xmlns:xlink="http://www.w3.org/1999/xlink" width="26" height="15" viewBox="0.42 0.859 24.658 13.445"><path paint-order="stroke fill markers" fill-rule="evenodd" d="M7.535 3.354A5.6 5.6 0 0 1 12.199.86h12.88l-7.11 10.949a5.601 5.601 0 0 1-4.664 2.496H.42l7.115-10.95z"/></svg></svg><svg width="32" height="24" xmlns="http://www.w3.org/2000/svg" xmlns:xlink="http://www.w3.org/1999/xlink" xmlns:svgjs="http://svgjs.com/svgjs" viewBox="0 0.417 32 23.166" fill="#fff" x="95" y="61"><svg xmlns="http://www.w3.org/2000/svg" xmlns:xlink="http://www.w3.org/1999/xlink" width="32" height="24" viewBox="0 0.859 31.574 22.857"><path paint-order="stroke fill markers" fill-rule="evenodd" d="M28.967 3.645A11.267 11.267 0 0 1 31.573.859H17.897c-1.946 0-3.66.99-4.663 2.495L0 23.716h12.884c1.946 0 3.66-.992 4.663-2.496l11.42-17.575z"/></svg></svg><svg width="11" height="15" xmlns="http://www.w3.org/2000/svg" xmlns:xlink="http://www.w3.org/1999/xlink" xmlns:svgjs="http://svgjs.com/svgjs" viewBox="0 0.448 11 14.104" fill="#fff" x="156" y="61"><svg xmlns="http://www.w3.org/2000/svg" xmlns:xlink="http://www.w3.org/1999/xlink" width="11" height="15" viewBox="0.491 0.859 10.487 13.446"><path paint-order="stroke fill markers" fill-rule="evenodd" d="M.49.859h5.291c3.06 0 5.196.983 5.196 4.424 0 3.171-1.902 4.563-5.079 4.563h-2.23v4.458H.492V.86zM3.67 6.964h1.716c.383 0 2.285.09 2.285-1.642 0-1.779-1.5-1.71-2.688-1.71H3.669v3.352z"/></svg></svg><svg width="10" height="15" xmlns="http://www.w3.org/2000/svg" xmlns:xlink="http://www.w3.org/1999/xlink" xmlns:svgjs="http://svgjs.com/svgjs" viewBox="0.074 0 9.851 15" fill="#fff" x="168" y="61"><svg xmlns="http://www.w3.org/2000/svg" xmlns:xlink="http://www.w3.org/1999/xlink" width="10" height="15" viewBox="0.675 0.859 8.83 13.446"><path paint-order="stroke fill markers" fill-rule="evenodd" d="M3.847 3.821v2.246h5.465v2.958H3.847v2.317h5.658v2.962H.675V.86h8.83V3.82H3.847z"/></svg></svg><svg width="12" height="15" xmlns="http://www.w3.org/2000/svg" xmlns:xlink="http://www.w3.org/1999/xlink" xmlns:svgjs="http://svgjs.com/svgjs" viewBox="0 0.51 12 13.98" fill="#fff" x="180" y="61"><svg xmlns="http://www.w3.org/2000/svg" xmlns:xlink="http://www.w3.org/1999/xlink" width="12" height="15" viewBox="0.159 0.859 11.541 13.445"><path paint-order="stroke fill markers" fill-rule="evenodd" d="M11.7 14.304H7.766L3.912 9.15l-.545-.019h-.033v5.173H.159V.859h5.929c2.417 0 4.252 1.267 4.252 4.136 0 2.144-1.306 3.503-3.04 3.844l4.4 5.465zM3.334 6.852h1.493c1.038 0 2.204-.213 2.204-1.676 0-1.461-1.166-1.675-2.204-1.675H3.334v3.351z"/></svg></svg><svg width="12" height="15" xmlns="http://www.w3.org/2000/svg" xmlns:xlink="http://www.w3.org/1999/xlink" xmlns:svgjs="http://svgjs.com/svgjs" viewBox="0.123 0 11.755 15" fill="#fff" x="191" y="61"><svg xmlns="http://www.w3.org/2000/svg" xmlns:xlink="http://www.w3.org/1999/xlink" width="12" height="15" viewBox="0.581 0.858 10.537 13.446"><path paint-order="stroke fill markers" fill-rule="evenodd" d="M7.44 14.304H4.261V3.821H.581V.858h10.537v2.963H7.44v10.483z"/></svg></svg><svg width="13" height="15" xmlns="http://www.w3.org/2000/svg" xmlns:xlink="http://www.w3.org/1999/xlink" xmlns:svgjs="http://svgjs.com/svgjs" viewBox="0 0.659 13 13.683" fill="#fff" x="201" y="61"><svg xmlns="http://www.w3.org/2000/svg" xmlns:xlink="http://www.w3.org/1999/xlink" width="13" height="15" viewBox="0.119 0.859 12.774 13.445"><path paint-order="stroke fill markers" fill-rule="evenodd" d="M4.335 11.968l-.844 2.336H.12L4.824.859H8.29l4.603 13.445H9.506l-.795-2.336H4.335zm2.218-6.955h-.03L5.212 9.294h2.641l-1.3-4.28z"/></svg></svg><svg width="17" height="15" xmlns="http://www.w3.org/2000/svg" xmlns:xlink="http://www.w3.org/1999/xlink" xmlns:svgjs="http://svgjs.com/svgjs" viewBox="0 0.039 17 14.923" fill="#fff" x="214" y="61"><svg xmlns="http://www.w3.org/2000/svg" xmlns:xlink="http://www.w3.org/1999/xlink" width="17" height="15" viewBox="0.883 0.858 15.317 13.446"><path paint-order="stroke fill markers" fill-rule="evenodd" d="M2.957.858h3.128l2.481 7.187L11.192.858h3.16l1.849 13.446h-3.175l-.896-7.739h-.032l-2.932 7.74H7.9l-2.805-7.74h-.03l-1.021 7.74H.884L2.956.857z"/></svg></svg><svg width="4" height="15" xmlns="http://www.w3.org/2000/svg" xmlns:xlink="http://www.w3.org/1999/xlink" xmlns:svgjs="http://svgjs.com/svgjs" viewBox="0.229 0 3.543 15" fill="#fff" x="232" y="61"><svg xmlns="http://www.w3.org/2000/svg" xmlns:xlink="http://www.w3.org/1999/xlink" width="4" height="15" viewBox="0.259 0.858 3.176 13.446"><path paint-order="stroke fill markers" fill-rule="evenodd" d="M.259.858h3.175v13.446H.26V.858z"/></svg></svg><svg width="13" height="15" xmlns="http://www.w3.org/2000/svg" xmlns:xlink="http://www.w3.org/1999/xlink" xmlns:svgjs="http://svgjs.com/svgjs" viewBox="0 0.339 13 14.321" fill="#fff" x="238" y="61"><svg xmlns="http://www.w3.org/2000/svg" xmlns:xlink="http://www.w3.org/1999/xlink" width="13" height="15" viewBox="0.226 0.858 12.205 13.446"><path paint-order="stroke fill markers" fill-rule="evenodd" d="M.226.858h3.176l5.82 8.22h.036V.858h3.173v13.446H9.258L3.434 6.067h-.032v8.237H.226V.858z"/></svg></svg><svg width="13" height="15" xmlns="http://www.w3.org/2000/svg" xmlns:xlink="http://www.w3.org/1999/xlink" xmlns:svgjs="http://svgjs.com/svgjs" viewBox="0 0.657 13 13.686" fill="#fff" x="252" y="61"><svg xmlns="http://www.w3.org/2000/svg" xmlns:xlink="http://www.w3.org/1999/xlink" width="13" height="15" viewBox="0.05 0.859 12.772 13.445"><path paint-order="stroke fill markers" fill-rule="evenodd" d="M4.266 11.968l-.843 2.336H.05L4.752.859h3.47l4.6 13.445H9.434l-.791-2.336H4.266zm2.22-6.955h-.033l-1.31 4.281h2.64l-1.296-4.28z"/></svg></svg></svg><svg width="109" height="10" xmlns="http://www.w3.org/2000/svg" xmlns:xlink="http://www.w3.org/1999/xlink" xmlns:svgjs="http://svgjs.com/svgjs" viewBox="156 84 109 10" x="156" y="84"><svg width="6" height="10" xmlns="http://www.w3.org/2000/svg" xmlns:xlink="http://www.w3.org/1999/xlink" xmlns:svgjs="http://svgjs.com/svgjs" viewBox="0.016 0 5.968 10" fill="#fff" x="156" y="84"><svg xmlns="http://www.w3.org/2000/svg" xmlns:xlink="http://www.w3.org/1999/xlink" width="6" height="10" viewBox="0.598 0.947 4.828 8.089"><path paint-order="stroke fill markers" fill-rule="evenodd" d="M3.452 9.037H2.55V1.784H.598V.947h4.828v.837H3.452v7.253z"/></svg></svg><svg width="5" height="10" xmlns="http://www.w3.org/2000/svg" xmlns:xlink="http://www.w3.org/1999/xlink" xmlns:svgjs="http://svgjs.com/svgjs" viewBox="0 0.677 5 8.646" fill="#fff" x="162" y="84"><svg xmlns="http://www.w3.org/2000/svg" xmlns:xlink="http://www.w3.org/1999/xlink" width="5" height="10" viewBox="0.318 0.947 4.678 8.089"><path paint-order="stroke fill markers" fill-rule="evenodd" d="M1.219 9.037H.318V.947h1.169c1.534 0 2.961.408 2.961 2.231 0 1.245-.783 2.125-2.028 2.233l2.576 3.626H3.89L1.444 5.485H1.22v3.552zm0-4.345h.279c1.019 0 2.049-.194 2.049-1.449 0-1.33-.976-1.459-2.06-1.459h-.268v2.908z"/></svg></svg><svg width="8" height="10" xmlns="http://www.w3.org/2000/svg" xmlns:xlink="http://www.w3.org/1999/xlink" xmlns:svgjs="http://svgjs.com/svgjs" viewBox="0 0.4 8 9.2" fill="#fff" x="167" y="84"><svg xmlns="http://www.w3.org/2000/svg" xmlns:xlink="http://www.w3.org/1999/xlink" width="8" height="10" viewBox="0.351 0.561 7.37 8.476"><path paint-order="stroke fill markers" fill-rule="evenodd" d="M2.315 6.74l-.977 2.297H.351L4.085.56l3.637 8.476h-.998L5.769 6.74H2.315zm1.749-4.076l-1.385 3.24h2.736l-1.351-3.24z"/></svg></svg><svg width="8" height="10" xmlns="http://www.w3.org/2000/svg" xmlns:xlink="http://www.w3.org/1999/xlink" xmlns:svgjs="http://svgjs.com/svgjs" viewBox="0 0.119 8 9.762" fill="#fff" x="175" y="84"><svg xmlns="http://www.w3.org/2000/svg" xmlns:xlink="http://www.w3.org/1999/xlink" width="8" height="10" viewBox="0.625 0.604 7.21 8.797"><path paint-order="stroke fill markers" fill-rule="evenodd" d="M.625.604l6.309 6.609V.947h.9v8.454L1.528 2.803v6.234H.625V.604z"/></svg></svg><svg width="6" height="10" xmlns="http://www.w3.org/2000/svg" xmlns:xlink="http://www.w3.org/1999/xlink" xmlns:svgjs="http://svgjs.com/svgjs" viewBox="0 0.043 6 9.914" fill="#fff" x="184" y="84"><svg xmlns="http://www.w3.org/2000/svg" xmlns:xlink="http://www.w3.org/1999/xlink" width="6" height="10" viewBox="0.104 0.808 5.064 8.368"><path paint-order="stroke fill markers" fill-rule="evenodd" d="M4.16 2.525c-.322-.558-.708-.88-1.395-.88-.719 0-1.342.515-1.342 1.255 0 .697.72 1.019 1.267 1.266l.536.236c1.051.461 1.942.987 1.942 2.275 0 1.415-1.137 2.5-2.542 2.5-1.299 0-2.264-.838-2.522-2.093l.88-.247c.118.826.75 1.502 1.62 1.502.87 0 1.663-.664 1.663-1.577 0-.944-.74-1.266-1.492-1.61l-.493-.213c-.944-.43-1.76-.912-1.76-2.071 0-1.255 1.062-2.06 2.265-2.06.9 0 1.662.461 2.091 1.254l-.719.463z"/></svg></svg><svg width="7" height="10" xmlns="http://www.w3.org/2000/svg" xmlns:xlink="http://www.w3.org/1999/xlink" xmlns:svgjs="http://svgjs.com/svgjs" viewBox="0 0.021 7 9.958" fill="#fff" x="193" y="84"><svg xmlns="http://www.w3.org/2000/svg" xmlns:xlink="http://www.w3.org/1999/xlink" width="7" height="10" viewBox="0.731 0.947 5.686 8.089"><path paint-order="stroke fill markers" fill-rule="evenodd" d="M5.076.947H6.29L2.49 4.713l3.926 4.324H5.173L1.858 5.325l-.226.225v3.487h-.9V.947h.9v3.465L5.076.947z"/></svg></svg><svg width="10" height="10" xmlns="http://www.w3.org/2000/svg" xmlns:xlink="http://www.w3.org/1999/xlink" xmlns:svgjs="http://svgjs.com/svgjs" viewBox="0 0.038 10 9.923" fill="#fff" x="199" y="84"><svg xmlns="http://www.w3.org/2000/svg" xmlns:xlink="http://www.w3.org/1999/xlink" width="10" height="10" viewBox="0.848 0.808 8.433 8.368"><path paint-order="stroke fill markers" fill-rule="evenodd" d="M9.281 5.002c0 2.329-1.91 4.174-4.217 4.174-2.306 0-4.216-1.845-4.216-4.174 0-2.316 1.91-4.194 4.216-4.194 2.307 0 4.217 1.878 4.217 4.194zm-7.531-.01c0 1.824 1.48 3.347 3.314 3.347C6.9 8.34 8.38 6.816 8.38 4.992c0-1.835-1.46-3.348-3.316-3.348-1.855 0-3.314 1.513-3.314 3.348z"/></svg></svg><svg width="8" height="10" xmlns="http://www.w3.org/2000/svg" xmlns:xlink="http://www.w3.org/1999/xlink" xmlns:svgjs="http://svgjs.com/svgjs" viewBox="0 0.119 8 9.762" fill="#fff" x="209" y="84"><svg xmlns="http://www.w3.org/2000/svg" xmlns:xlink="http://www.w3.org/1999/xlink" width="8" height="10" viewBox="0.529 0.604 7.21 8.797"><path paint-order="stroke fill markers" fill-rule="evenodd" d="M.53.604l6.308 6.609V.947h.9v8.454L1.43 2.803v6.234h-.9V.604z"/></svg></svg><svg width="6" height="10" xmlns="http://www.w3.org/2000/svg" xmlns:xlink="http://www.w3.org/1999/xlink" xmlns:svgjs="http://svgjs.com/svgjs" viewBox="0.016 0 5.968 10" fill="#fff" x="217" y="84"><svg xmlns="http://www.w3.org/2000/svg" xmlns:xlink="http://www.w3.org/1999/xlink" width="6" height="10" viewBox="0.686 0.947 4.828 8.089"><path paint-order="stroke fill markers" fill-rule="evenodd" d="M3.54 9.037h-.902V1.784H.686V.947h4.828v.837H3.54v7.253z"/></svg></svg><svg width="2" height="10" xmlns="http://www.w3.org/2000/svg" xmlns:xlink="http://www.w3.org/1999/xlink" xmlns:svgjs="http://svgjs.com/svgjs" viewBox="0.443 0 1.114 10" fill="#fff" x="223" y="84"><svg xmlns="http://www.w3.org/2000/svg" xmlns:xlink="http://www.w3.org/1999/xlink" width="2" height="10" viewBox="0.427 0.947 0.901 8.089"><path paint-order="stroke fill markers" fill-rule="evenodd" d="M1.329 9.037H.427V.947h.902v8.09z"/></svg></svg><svg width="9" height="10" xmlns="http://www.w3.org/2000/svg" xmlns:xlink="http://www.w3.org/1999/xlink" xmlns:svgjs="http://svgjs.com/svgjs" viewBox="0.402 0 8.195 10" fill="#fff" x="225" y="84"><svg xmlns="http://www.w3.org/2000/svg" xmlns:xlink="http://www.w3.org/1999/xlink" width="9" height="10" viewBox="0.993 0.604 7.21 8.797"><path paint-order="stroke fill markers" fill-rule="evenodd" d="M.993.604L7.3 7.213V.947h.901v8.454L1.893 2.803v6.234h-.9V.604z"/></svg></svg><svg width="6" height="10" xmlns="http://www.w3.org/2000/svg" xmlns:xlink="http://www.w3.org/1999/xlink" xmlns:svgjs="http://svgjs.com/svgjs" viewBox="0.407 0 5.186 10" fill="#fff" x="234" y="84"><svg xmlns="http://www.w3.org/2000/svg" xmlns:xlink="http://www.w3.org/1999/xlink" width="6" height="10" viewBox="0.857 0.947 4.195 8.089"><path paint-order="stroke fill markers" fill-rule="evenodd" d="M.857.947h4.195v.837H1.76v2.403h3.196v.837H1.76V8.2h3.293v.837H.857V.947z"/></svg></svg><svg width="8" height="10" xmlns="http://www.w3.org/2000/svg" xmlns:xlink="http://www.w3.org/1999/xlink" xmlns:svgjs="http://svgjs.com/svgjs" viewBox="0 0.119 8 9.762" fill="#fff" x="240" y="84"><svg xmlns="http://www.w3.org/2000/svg" xmlns:xlink="http://www.w3.org/1999/xlink" width="8" height="10" viewBox="0.61 0.604 7.21 8.797"><path paint-order="stroke fill markers" fill-rule="evenodd" d="M.61.604l6.308 6.609V.947h.901v8.454L1.511 2.803v6.234H.61V.604z"/></svg></svg><svg width="6" height="10" xmlns="http://www.w3.org/2000/svg" xmlns:xlink="http://www.w3.org/1999/xlink" xmlns:svgjs="http://svgjs.com/svgjs" viewBox="0.016 0 5.968 10" fill="#fff" x="248" y="84"><svg xmlns="http://www.w3.org/2000/svg" xmlns:xlink="http://www.w3.org/1999/xlink" width="6" height="10" viewBox="0.766 0.947 4.828 8.089"><path paint-order="stroke fill markers" fill-rule="evenodd" d="M3.62 9.037H2.72V1.784H.766V.947h4.828v.837H3.62v7.253z"/></svg></svg><svg width="9" height="10" xmlns="http://www.w3.org/2000/svg" xmlns:xlink="http://www.w3.org/1999/xlink" xmlns:svgjs="http://svgjs.com/svgjs" viewBox="0.152 0 8.696 10" fill="#fff" x="252" y="84"><svg xmlns="http://www.w3.org/2000/svg" xmlns:xlink="http://www.w3.org/1999/xlink" width="9" height="10" viewBox="0.877 0.561 7.371 8.476"><path paint-order="stroke fill markers" fill-rule="evenodd" d="M2.84 6.74l-.976 2.297H.877L4.611.56l3.637 8.476H7.25L6.295 6.74H2.841zm1.75-4.076l-1.385 3.24h2.736l-1.352-3.24z"/></svg></svg><svg width="4" height="10" xmlns="http://www.w3.org/2000/svg" xmlns:xlink="http://www.w3.org/1999/xlink" xmlns:svgjs="http://svgjs.com/svgjs" viewBox="0.063 0 3.874 10" fill="#fff" x="261" y="84"><svg xmlns="http://www.w3.org/2000/svg" width="4" height="10" viewBox="0.098 0.947 3.133 8.089"><path paint-order="stroke fill markers" fill-rule="evenodd" d="M.999 8.2H3.23v.837H.098V.947h.9V8.2z"/></svg></svg></svg></svg>