<svg width="238" height="66" xmlns="http://www.w3.org/2000/svg" xmlns:xlink="http://www.w3.org/1999/xlink" xmlns:svgjs="http://svgjs.com/svgjs" viewBox="123 0 238 66"><svg width="238" height="66" xmlns="http://www.w3.org/2000/svg" xmlns:xlink="http://www.w3.org/1999/xlink" xmlns:svgjs="http://svgjs.com/svgjs" viewBox="123 0 238 66" x="123"><svg width="238" height="66" xmlns="http://www.w3.org/2000/svg" xmlns:xlink="http://www.w3.org/1999/xlink" xmlns:svgjs="http://svgjs.com/svgjs" viewBox="0 0.005 238 65.989" fill="#fff" x="123"><svg xmlns="http://www.w3.org/2000/svg" xmlns:xlink="http://www.w3.org/1999/xlink" width="238" height="66" viewBox="0.517 0 236.845 65.669"><path paint-order="stroke fill markers" fill-rule="evenodd" d="M237.362 65.669H76.352a53.06 53.06 0 0 1-34.385-15.04C28.644 37.31.517 0 .517 0h236.845v65.669z"/></svg></svg></svg><svg width="146" height="42" xmlns="http://www.w3.org/2000/svg" xmlns:xlink="http://www.w3.org/1999/xlink" xmlns:svgjs="http://svgjs.com/svgjs" viewBox="198 12 146 42" x="198" y="12"><svg width="146" height="35" xmlns="http://www.w3.org/2000/svg" xmlns:xlink="http://www.w3.org/1999/xlink" xmlns:svgjs="http://svgjs.com/svgjs" viewBox="198 12 146 35" x="198" y="12"><svg width="23" height="12" xmlns="http://www.w3.org/2000/svg" xmlns:xlink="http://www.w3.org/1999/xlink" xmlns:svgjs="http://svgjs.com/svgjs" viewBox="0.497 0 22.006 12" fill="#dc1f26" x="221" y="12"><svg xmlns="http://www.w3.org/2000/svg" xmlns:xlink="http://www.w3.org/1999/xlink" width="23" height="12" viewBox="0.979 0.332 21.059 11.484"><path paint-order="stroke fill markers" fill-rule="evenodd" d="M15.961 2.464A4.784 4.784 0 0 0 11.977.332H.979L7.05 9.684a4.787 4.787 0 0 0 3.984 2.131h11.004l-6.077-9.351z"/></svg></svg><svg width="23" height="13" xmlns="http://www.w3.org/2000/svg" xmlns:xlink="http://www.w3.org/1999/xlink" xmlns:svgjs="http://svgjs.com/svgjs" viewBox="0 0.229 23 12.541" fill="#bfc531" x="221" y="26"><svg xmlns="http://www.w3.org/2000/svg" xmlns:xlink="http://www.w3.org/1999/xlink" width="23" height="13" viewBox="0.979 0.686 21.059 11.483"><path paint-order="stroke fill markers" fill-rule="evenodd" d="M7.055 2.817A4.783 4.783 0 0 1 11.04.687h11l-6.073 9.35a4.784 4.784 0 0 1-3.983 2.132H.98l6.076-9.352z"/></svg></svg><svg width="28" height="21" xmlns="http://www.w3.org/2000/svg" xmlns:xlink="http://www.w3.org/1999/xlink" xmlns:svgjs="http://svgjs.com/svgjs" viewBox="0 0.365 28 20.27" fill="#1b4ba0" x="198" y="26"><svg xmlns="http://www.w3.org/2000/svg" xmlns:xlink="http://www.w3.org/1999/xlink" width="28" height="21" viewBox="0.56 0.686 26.966 19.522"><path paint-order="stroke fill markers" fill-rule="evenodd" d="M25.3 3.066a9.615 9.615 0 0 1 2.226-2.38h-11.68a4.78 4.78 0 0 0-3.984 2.131L.56 20.207h11.004a4.78 4.78 0 0 0 3.983-2.131L25.3 3.066z"/></svg></svg><svg width="10" height="13" xmlns="http://www.w3.org/2000/svg" xmlns:xlink="http://www.w3.org/1999/xlink" xmlns:svgjs="http://svgjs.com/svgjs" viewBox="0 0.089 10 12.821" fill="#181718" x="251" y="26"><svg xmlns="http://www.w3.org/2000/svg" xmlns:xlink="http://www.w3.org/1999/xlink" width="10" height="13" viewBox="0.077 0.686 8.957 11.483"><path paint-order="stroke fill markers" fill-rule="evenodd" d="M.077.686h4.52c2.613 0 4.437.84 4.437 3.779 0 2.708-1.625 3.897-4.338 3.897H2.792v3.808H.077V.686zM2.792 5.9h1.466c.327 0 1.951.078 1.951-1.402 0-1.52-1.28-1.46-2.296-1.46H2.792V5.9z"/></svg></svg><svg width="9" height="13" xmlns="http://www.w3.org/2000/svg" xmlns:xlink="http://www.w3.org/1999/xlink" xmlns:svgjs="http://svgjs.com/svgjs" viewBox="0.231 0 8.538 13" fill="#181718" x="261" y="26"><svg xmlns="http://www.w3.org/2000/svg" xmlns:xlink="http://www.w3.org/1999/xlink" width="9" height="13" viewBox="0.484 0.686 7.542 11.483"><path paint-order="stroke fill markers" fill-rule="evenodd" d="M3.193 3.216v1.918H7.86v2.527H3.193V9.64h4.833v2.53H.484V.686h7.542v2.53H3.193z"/></svg></svg><svg width="11" height="13" xmlns="http://www.w3.org/2000/svg" xmlns:xlink="http://www.w3.org/1999/xlink" xmlns:svgjs="http://svgjs.com/svgjs" viewBox="0 0.093 11 12.815" fill="#181718" x="271" y="26"><svg xmlns="http://www.w3.org/2000/svg" xmlns:xlink="http://www.w3.org/1999/xlink" width="11" height="13" viewBox="0.292 0.686 9.857 11.483"><path paint-order="stroke fill markers" fill-rule="evenodd" d="M10.149 12.17h-3.36L3.498 7.766l-.466-.016h-.029v4.418H.292V.686h5.063c2.065 0 3.632 1.082 3.632 3.533 0 1.83-1.115 2.992-2.596 3.283l3.758 4.667zM3.003 5.804H4.28c.886 0 1.882-.183 1.882-1.431 0-1.249-.996-1.43-1.882-1.43H3.003v2.86z"/></svg></svg><svg width="10" height="13" xmlns="http://www.w3.org/2000/svg" xmlns:xlink="http://www.w3.org/1999/xlink" xmlns:svgjs="http://svgjs.com/svgjs" viewBox="0 0.12 10 12.761" fill="#181718" x="281" y="26"><svg xmlns="http://www.w3.org/2000/svg" xmlns:xlink="http://www.w3.org/1999/xlink" width="10" height="13" viewBox="0.047 0.686 8.999 11.484"><path paint-order="stroke fill markers" fill-rule="evenodd" d="M5.905 12.17H3.19V3.216H.047V.686h9v2.53H5.905v8.954z"/></svg></svg><svg width="12" height="13" xmlns="http://www.w3.org/2000/svg" xmlns:xlink="http://www.w3.org/1999/xlink" xmlns:svgjs="http://svgjs.com/svgjs" viewBox="0 0.185 12 12.63" fill="#181718" x="289" y="26"><svg xmlns="http://www.w3.org/2000/svg" xmlns:xlink="http://www.w3.org/1999/xlink" width="12" height="13" viewBox="0.193 0.686 10.91 11.483"><path paint-order="stroke fill markers" fill-rule="evenodd" d="M3.794 10.174l-.72 1.995H.193L4.21.686h2.961l3.931 11.483H8.21l-.678-1.995H3.794zm1.894-5.94h-.025l-1.12 3.657h2.256l-1.11-3.657z"/></svg></svg><svg width="15" height="13" xmlns="http://www.w3.org/2000/svg" xmlns:xlink="http://www.w3.org/1999/xlink" xmlns:svgjs="http://svgjs.com/svgjs" viewBox="0.095 0 14.81 13" fill="#181718" x="300" y="26"><svg xmlns="http://www.w3.org/2000/svg" xmlns:xlink="http://www.w3.org/1999/xlink" width="15" height="13" viewBox="0.949 0.686 13.082 11.484"><path paint-order="stroke fill markers" fill-rule="evenodd" d="M2.72.686h2.671l2.12 6.137L9.753.686h2.7L14.03 12.17H11.32l-.765-6.61h-.028l-2.504 6.61H6.941L4.546 5.56H4.52l-.872 6.61h-2.7L2.72.686z"/></svg></svg><svg width="4" height="13" xmlns="http://www.w3.org/2000/svg" xmlns:xlink="http://www.w3.org/1999/xlink" xmlns:svgjs="http://svgjs.com/svgjs" viewBox="0.465 0 3.07 13" fill="#181718" x="315" y="26"><svg xmlns="http://www.w3.org/2000/svg" xmlns:xlink="http://www.w3.org/1999/xlink" width="4" height="13" viewBox="0.789 0.686 2.712 11.484"><path paint-order="stroke fill markers" fill-rule="evenodd" d="M.789.686H3.5v11.483H.789V.686z"/></svg></svg><svg width="12" height="13" xmlns="http://www.w3.org/2000/svg" xmlns:xlink="http://www.w3.org/1999/xlink" xmlns:svgjs="http://svgjs.com/svgjs" viewBox="0.1 0 11.8 13" fill="#181718" x="320" y="26"><svg xmlns="http://www.w3.org/2000/svg" xmlns:xlink="http://www.w3.org/1999/xlink" width="12" height="13" viewBox="0.886 0.686 10.424 11.484"><path paint-order="stroke fill markers" fill-rule="evenodd" d="M.886.686h2.712l4.97 7.02H8.6V.686h2.71V12.17H8.6L3.625 5.134h-.027v7.036H.886V.686z"/></svg></svg><svg width="12" height="13" xmlns="http://www.w3.org/2000/svg" xmlns:xlink="http://www.w3.org/1999/xlink" xmlns:svgjs="http://svgjs.com/svgjs" viewBox="0 0.184 12 12.633" fill="#181718" x="332" y="26"><svg xmlns="http://www.w3.org/2000/svg" xmlns:xlink="http://www.w3.org/1999/xlink" width="12" height="13" viewBox="0.692 0.686 10.908 11.483"><path paint-order="stroke fill markers" fill-rule="evenodd" d="M4.293 10.174l-.72 1.995H.693L4.707.686h2.964L11.6 12.17H8.706l-.676-1.995H4.293zm1.896-5.94h-.028L5.04 7.891h2.255L6.189 4.234z"/></svg></svg></svg><svg width="93" height="8" xmlns="http://www.w3.org/2000/svg" xmlns:xlink="http://www.w3.org/1999/xlink" xmlns:svgjs="http://svgjs.com/svgjs" viewBox="251 46 93 8" x="251" y="46"><svg width="5" height="8" xmlns="http://www.w3.org/2000/svg" xmlns:xlink="http://www.w3.org/1999/xlink" xmlns:svgjs="http://svgjs.com/svgjs" viewBox="0.113 0 4.774 8" fill="#dc1f26" x="251" y="46"><svg xmlns="http://www.w3.org/2000/svg" xmlns:xlink="http://www.w3.org/1999/xlink" width="5" height="8" viewBox="0.169 0.405 4.123 6.909"><path paint-order="stroke fill markers" fill-rule="evenodd" d="M2.606 7.314h-.77V1.12H.17V.405h4.123v.715H2.606v6.194z"/></svg></svg><svg width="5" height="8" xmlns="http://www.w3.org/2000/svg" xmlns:xlink="http://www.w3.org/1999/xlink" xmlns:svgjs="http://svgjs.com/svgjs" viewBox="0.187 0 4.626 8" fill="#dc1f26" x="256" y="46"><svg xmlns="http://www.w3.org/2000/svg" xmlns:xlink="http://www.w3.org/1999/xlink" width="5" height="8" viewBox="0.054 0.405 3.995 6.909"><path paint-order="stroke fill markers" fill-rule="evenodd" d="M.824 7.314h-.77V.405h.999c1.31 0 2.529.348 2.529 1.906 0 1.063-.669 1.814-1.732 1.906l2.2 3.097h-.944l-2.09-3.033H.824v3.033zm0-3.711h.238c.87 0 1.75-.165 1.75-1.237 0-1.137-.833-1.246-1.76-1.246H.825v2.483z"/></svg></svg><svg width="7" height="8" xmlns="http://www.w3.org/2000/svg" xmlns:xlink="http://www.w3.org/1999/xlink" xmlns:svgjs="http://svgjs.com/svgjs" viewBox="0.022 0 6.956 8" fill="#dc1f26" x="260" y="46"><svg xmlns="http://www.w3.org/2000/svg" xmlns:xlink="http://www.w3.org/1999/xlink" width="7" height="8" viewBox="0.354 0.075 6.295 7.239"><path paint-order="stroke fill markers" fill-rule="evenodd" d="M2.03 5.353l-.834 1.961H.354L3.542.075l3.106 7.24h-.852L4.98 5.352H2.03zm1.494-3.482L2.342 4.64h2.336L3.524 1.87z"/></svg></svg><svg width="7" height="8" xmlns="http://www.w3.org/2000/svg" xmlns:xlink="http://www.w3.org/1999/xlink" xmlns:svgjs="http://svgjs.com/svgjs" viewBox="0.222 0 6.556 8" fill="#dc1f26" x="267" y="46"><svg xmlns="http://www.w3.org/2000/svg" xmlns:xlink="http://www.w3.org/1999/xlink" width="7" height="8" viewBox="0.42 0.112 6.157 7.513"><path paint-order="stroke fill markers" fill-rule="evenodd" d="M.42.112l5.388 5.644V.406h.77v7.22L1.19 1.99v5.324H.42V.112z"/></svg></svg><svg width="5" height="8" xmlns="http://www.w3.org/2000/svg" xmlns:xlink="http://www.w3.org/1999/xlink" xmlns:svgjs="http://svgjs.com/svgjs" viewBox="0.079 0 4.842 8" fill="#dc1f26" x="274" y="46"><svg xmlns="http://www.w3.org/2000/svg" xmlns:xlink="http://www.w3.org/1999/xlink" width="5" height="8" viewBox="0.661 0.286 4.325 7.147"><path paint-order="stroke fill markers" fill-rule="evenodd" d="M4.125 1.753C3.85 1.276 3.52 1 2.934 1c-.614 0-1.146.44-1.146 1.072 0 .595.614.87 1.082 1.081l.457.202c.898.394 1.66.842 1.66 1.943 0 1.209-.972 2.135-2.172 2.135-1.109 0-1.934-.715-2.154-1.787l.752-.211c.1.705.64 1.283 1.383 1.283s1.42-.568 1.42-1.347c0-.807-.632-1.082-1.273-1.375l-.422-.183c-.806-.366-1.502-.779-1.502-1.769 0-1.071.907-1.759 1.933-1.759.77 0 1.42.394 1.787 1.072l-.614.395z"/></svg></svg><svg width="6" height="8" xmlns="http://www.w3.org/2000/svg" xmlns:xlink="http://www.w3.org/1999/xlink" xmlns:svgjs="http://svgjs.com/svgjs" viewBox="0.188 0 5.623 8" fill="#dc1f26" x="282" y="46"><svg xmlns="http://www.w3.org/2000/svg" xmlns:xlink="http://www.w3.org/1999/xlink" width="6" height="8" viewBox="0.883 0.405 4.856 6.909"><path paint-order="stroke fill markers" fill-rule="evenodd" d="M4.594.405H5.63L2.386 3.621 5.74 7.314H4.677l-2.831-3.17-.193.192v2.978h-.77V.405h.77v2.96L4.594.405z"/></svg></svg><svg width="8" height="8" xmlns="http://www.w3.org/2000/svg" xmlns:xlink="http://www.w3.org/1999/xlink" xmlns:svgjs="http://svgjs.com/svgjs" viewBox="0 0.031 8 7.939" fill="#dc1f26" x="288" y="46"><svg xmlns="http://www.w3.org/2000/svg" xmlns:xlink="http://www.w3.org/1999/xlink" width="8" height="8" viewBox="0.108 0.286 7.202 7.147"><path paint-order="stroke fill markers" fill-rule="evenodd" d="M7.31 3.869c0 1.988-1.631 3.565-3.601 3.565S.108 5.857.108 3.869c0-1.98 1.631-3.583 3.6-3.583C5.679.286 7.31 1.89 7.31 3.87zm-6.432-.01c0 1.559 1.264 2.86 2.83 2.86 1.568 0 2.833-1.301 2.833-2.86 0-1.566-1.247-2.858-2.832-2.858C2.124 1 .878 2.293.878 3.86z"/></svg></svg><svg width="7" height="8" xmlns="http://www.w3.org/2000/svg" xmlns:xlink="http://www.w3.org/1999/xlink" xmlns:svgjs="http://svgjs.com/svgjs" viewBox="0.222 0 6.556 8" fill="#dc1f26" x="296" y="46"><svg xmlns="http://www.w3.org/2000/svg" xmlns:xlink="http://www.w3.org/1999/xlink" width="7" height="8" viewBox="0.376 0.112 6.158 7.513"><path paint-order="stroke fill markers" fill-rule="evenodd" d="M.376.112l5.388 5.644V.406h.77v7.22L1.145 1.99v5.324H.376V.112z"/></svg></svg><svg width="5" height="8" xmlns="http://www.w3.org/2000/svg" xmlns:xlink="http://www.w3.org/1999/xlink" xmlns:svgjs="http://svgjs.com/svgjs" viewBox="0.113 0 4.774 8" fill="#dc1f26" x="303" y="46"><svg xmlns="http://www.w3.org/2000/svg" xmlns:xlink="http://www.w3.org/1999/xlink" width="5" height="8" viewBox="0.342 0.405 4.123 6.909"><path paint-order="stroke fill markers" fill-rule="evenodd" d="M2.78 7.314h-.77V1.12H.342V.405h4.124v.715H2.78v6.194z"/></svg></svg><svg width="2" height="8" xmlns="http://www.w3.org/2000/svg" xmlns:xlink="http://www.w3.org/1999/xlink" xmlns:svgjs="http://svgjs.com/svgjs" viewBox="0.554 0 0.891 8" fill="#dc1f26" x="308" y="46"><svg xmlns="http://www.w3.org/2000/svg" xmlns:xlink="http://www.w3.org/1999/xlink" width="2" height="8" viewBox="0.246 0.405 0.77 6.909"><path paint-order="stroke fill markers" fill-rule="evenodd" d="M1.016 7.314h-.77V.405h.77v6.909z"/></svg></svg><svg width="7" height="8" xmlns="http://www.w3.org/2000/svg" xmlns:xlink="http://www.w3.org/1999/xlink" xmlns:svgjs="http://svgjs.com/svgjs" viewBox="0.222 0 6.556 8" fill="#dc1f26" x="310" y="46"><svg xmlns="http://www.w3.org/2000/svg" xmlns:xlink="http://www.w3.org/1999/xlink" width="7" height="8" viewBox="0.437 0.112 6.158 7.513"><path paint-order="stroke fill markers" fill-rule="evenodd" d="M.437.112l5.388 5.644V.406h.77v7.22L1.206 1.99v5.324H.437V.112z"/></svg></svg><svg width="4" height="8" xmlns="http://www.w3.org/2000/svg" xmlns:xlink="http://www.w3.org/1999/xlink" xmlns:svgjs="http://svgjs.com/svgjs" viewBox="0 0.143 4 7.714" fill="#dc1f26" x="318" y="46"><svg xmlns="http://www.w3.org/2000/svg" xmlns:xlink="http://www.w3.org/1999/xlink" width="4" height="8" viewBox="0.008 0.405 3.583 6.909"><path paint-order="stroke fill markers" fill-rule="evenodd" d="M.008.405h3.583v.715H.778v2.052h2.73v.715H.778v2.712H3.59v.715H.008V.405z"/></svg></svg><svg width="8" height="8" xmlns="http://www.w3.org/2000/svg" xmlns:xlink="http://www.w3.org/1999/xlink" xmlns:svgjs="http://svgjs.com/svgjs" viewBox="0.722 0 6.556 8" fill="#dc1f26" x="322" y="46"><svg xmlns="http://www.w3.org/2000/svg" xmlns:xlink="http://www.w3.org/1999/xlink" width="8" height="8" viewBox="0.921 0.112 6.157 7.513"><path paint-order="stroke fill markers" fill-rule="evenodd" d="M.921.112L6.31 5.756V.406h.77v7.22L1.69 1.99v5.324H.92V.112z"/></svg></svg><svg width="6" height="8" xmlns="http://www.w3.org/2000/svg" xmlns:xlink="http://www.w3.org/1999/xlink" xmlns:svgjs="http://svgjs.com/svgjs" viewBox="0.613 0 4.775 8" fill="#dc1f26" x="329" y="46"><svg xmlns="http://www.w3.org/2000/svg" xmlns:xlink="http://www.w3.org/1999/xlink" width="6" height="8" viewBox="0.887 0.405 4.123 6.909"><path paint-order="stroke fill markers" fill-rule="evenodd" d="M3.325 7.314h-.77V1.12H.887V.405h4.124v.715H3.325v6.194z"/></svg></svg><svg width="7" height="8" xmlns="http://www.w3.org/2000/svg" xmlns:xlink="http://www.w3.org/1999/xlink" xmlns:svgjs="http://svgjs.com/svgjs" viewBox="0.022 0 6.957 8" fill="#dc1f26" x="333" y="46"><svg xmlns="http://www.w3.org/2000/svg" xmlns:xlink="http://www.w3.org/1999/xlink" width="7" height="8" viewBox="0.398 0.075 6.295 7.239"><path paint-order="stroke fill markers" fill-rule="evenodd" d="M2.075 5.353l-.834 1.961H.398L3.588.075l3.105 7.24h-.852l-.815-1.962h-2.95zM3.57 1.871L2.387 4.64h2.336L3.57 1.87z"/></svg></svg><svg width="4" height="8" xmlns="http://www.w3.org/2000/svg" xmlns:xlink="http://www.w3.org/1999/xlink" xmlns:svgjs="http://svgjs.com/svgjs" viewBox="0.451 0 3.099 8" fill="#dc1f26" x="340" y="46"><svg xmlns="http://www.w3.org/2000/svg" width="4" height="8" viewBox="0.419 0.405 2.676 6.909"><path paint-order="stroke fill markers" fill-rule="evenodd" d="M1.189 6.6h1.906v.714H.42V.405h.77V6.6z"/></svg></svg></svg></svg></svg>