<svg width="132" height="38" xmlns="http://www.w3.org/2000/svg" xmlns:xlink="http://www.w3.org/1999/xlink" xmlns:svgjs="http://svgjs.com/svgjs" viewBox="33 33 132 38"><svg width="132" height="31" xmlns="http://www.w3.org/2000/svg" xmlns:xlink="http://www.w3.org/1999/xlink" xmlns:svgjs="http://svgjs.com/svgjs" viewBox="33 33 132 31" x="33" y="33"><svg width="20" height="11" xmlns="http://www.w3.org/2000/svg" xmlns:xlink="http://www.w3.org/1999/xlink" xmlns:svgjs="http://svgjs.com/svgjs" viewBox="0 0.047 20 10.906" fill="#dc1f26" x="54" y="33"><svg xmlns="http://www.w3.org/2000/svg" xmlns:xlink="http://www.w3.org/1999/xlink" width="20" height="11" viewBox="0.993 0 18.95 10.333"><path paint-order="stroke fill markers" fill-rule="evenodd" d="M14.475 1.918A4.305 4.305 0 0 0 10.889 0H.993l5.463 8.415a4.307 4.307 0 0 0 3.584 1.918h9.903l-5.468-8.415z"/></svg></svg><svg width="20" height="12" xmlns="http://www.w3.org/2000/svg" xmlns:xlink="http://www.w3.org/1999/xlink" xmlns:svgjs="http://svgjs.com/svgjs" viewBox="0 0.547 20 10.906" fill="#bfc531" x="54" y="45"><svg xmlns="http://www.w3.org/2000/svg" xmlns:xlink="http://www.w3.org/1999/xlink" width="20" height="12" viewBox="0.993 0.916 18.95 10.333"><path paint-order="stroke fill markers" fill-rule="evenodd" d="M6.46 2.834A4.305 4.305 0 0 1 10.045.916h9.898L14.48 9.331a4.305 4.305 0 0 1-3.584 1.919H.993L6.46 2.834z"/></svg></svg><svg width="26" height="19" xmlns="http://www.w3.org/2000/svg" xmlns:xlink="http://www.w3.org/1999/xlink" xmlns:svgjs="http://svgjs.com/svgjs" viewBox="0 0.089 26 18.822" fill="#1b4ba0" x="33" y="45"><svg xmlns="http://www.w3.org/2000/svg" xmlns:xlink="http://www.w3.org/1999/xlink" width="26" height="19" viewBox="0.919 0.916 24.265 17.566"><path paint-order="stroke fill markers" fill-rule="evenodd" d="M23.181 3.057a8.66 8.66 0 0 1 2.004-2.14H14.674a4.302 4.302 0 0 0-3.584 1.917L.92 18.483h9.901a4.302 4.302 0 0 0 3.584-1.919l8.776-13.507z"/></svg></svg><svg width="9" height="12" xmlns="http://www.w3.org/2000/svg" xmlns:xlink="http://www.w3.org/1999/xlink" xmlns:svgjs="http://svgjs.com/svgjs" viewBox="0 0.23 9 11.54" fill="#181718" x="81" y="45"><svg xmlns="http://www.w3.org/2000/svg" xmlns:xlink="http://www.w3.org/1999/xlink" width="9" height="12" viewBox="0.177 0.916 8.059 10.333"><path paint-order="stroke fill markers" fill-rule="evenodd" d="M.177.916h4.066c2.351 0 3.993.756 3.993 3.4 0 2.438-1.462 3.508-3.904 3.508H2.62v3.426H.177V.916zm2.442 4.692h1.32c.294 0 1.755.07 1.755-1.261 0-1.367-1.152-1.315-2.066-1.315H2.62v2.576z"/></svg></svg><svg width="8" height="12" xmlns="http://www.w3.org/2000/svg" xmlns:xlink="http://www.w3.org/1999/xlink" xmlns:svgjs="http://svgjs.com/svgjs" viewBox="0.06 0 7.881 12" fill="#181718" x="90" y="45"><svg xmlns="http://www.w3.org/2000/svg" xmlns:xlink="http://www.w3.org/1999/xlink" width="8" height="12" viewBox="0.541 0.916 6.787 10.334"><path paint-order="stroke fill markers" fill-rule="evenodd" d="M2.978 3.193V4.92h4.2v2.274h-4.2v1.78h4.35v2.277H.54V.916h6.786v2.277H2.978z"/></svg></svg><svg width="10" height="12" xmlns="http://www.w3.org/2000/svg" xmlns:xlink="http://www.w3.org/1999/xlink" xmlns:svgjs="http://svgjs.com/svgjs" viewBox="0 0.175 10 11.651" fill="#181718" x="99" y="45"><svg xmlns="http://www.w3.org/2000/svg" xmlns:xlink="http://www.w3.org/1999/xlink" width="10" height="12" viewBox="0.367 0.916 8.869 10.333"><path paint-order="stroke fill markers" fill-rule="evenodd" d="M9.236 11.25H6.213L3.25 7.289l-.419-.015h-.026v3.976H.366V.916h4.557c1.858 0 3.268.974 3.268 3.18 0 1.647-1.004 2.692-2.336 2.954l3.38 4.2zm-6.43-5.727h1.148c.798 0 1.694-.164 1.694-1.288 0-1.123-.896-1.288-1.694-1.288H2.806v2.576z"/></svg></svg><svg width="9" height="12" xmlns="http://www.w3.org/2000/svg" xmlns:xlink="http://www.w3.org/1999/xlink" xmlns:svgjs="http://svgjs.com/svgjs" viewBox="0 0.258 9 11.485" fill="#181718" x="108" y="45"><svg xmlns="http://www.w3.org/2000/svg" xmlns:xlink="http://www.w3.org/1999/xlink" width="9" height="12" viewBox="0.145 0.916 8.098 10.333"><path paint-order="stroke fill markers" fill-rule="evenodd" d="M5.416 11.25H2.973V3.193H.145V.916h8.098v2.277H5.416v8.057z"/></svg></svg><svg width="11" height="12" xmlns="http://www.w3.org/2000/svg" xmlns:xlink="http://www.w3.org/1999/xlink" xmlns:svgjs="http://svgjs.com/svgjs" viewBox="0 0.211 11 11.578" fill="#181718" x="115" y="45"><svg xmlns="http://www.w3.org/2000/svg" xmlns:xlink="http://www.w3.org/1999/xlink" width="11" height="12" viewBox="0.475 0.916 9.818 10.333"><path paint-order="stroke fill markers" fill-rule="evenodd" d="M3.715 9.454l-.648 1.796H.475L4.09.916h2.664l3.537 10.334H7.69l-.61-1.796H3.714zM5.42 4.11h-.023L4.39 7.4h2.03l-1-3.29z"/></svg></svg><svg width="12" height="12" xmlns="http://www.w3.org/2000/svg" xmlns:xlink="http://www.w3.org/1999/xlink" xmlns:svgjs="http://svgjs.com/svgjs" viewBox="0 0.733 12 10.534" fill="#181718" x="126" y="45"><svg xmlns="http://www.w3.org/2000/svg" xmlns:xlink="http://www.w3.org/1999/xlink" width="12" height="12" viewBox="0.053 0.916 11.772 10.333"><path paint-order="stroke fill markers" fill-rule="evenodd" d="M1.647.916H4.05L5.958 6.44 7.976.916h2.429l1.42 10.334h-2.44l-.688-5.948h-.025L6.42 11.25h-.974L3.29 5.302h-.023l-.785 5.948H.053L1.647.916z"/></svg></svg><svg width="3" height="12" xmlns="http://www.w3.org/2000/svg" xmlns:xlink="http://www.w3.org/1999/xlink" xmlns:svgjs="http://svgjs.com/svgjs" viewBox="0.083 0 2.834 12" fill="#181718" x="139" y="45"><svg xmlns="http://www.w3.org/2000/svg" xmlns:xlink="http://www.w3.org/1999/xlink" width="3" height="12" viewBox="0.406 0.916 2.441 10.333"><path paint-order="stroke fill markers" fill-rule="evenodd" d="M.406.916h2.441V11.25H.407V.916z"/></svg></svg><svg width="11" height="12" xmlns="http://www.w3.org/2000/svg" xmlns:xlink="http://www.w3.org/1999/xlink" xmlns:svgjs="http://svgjs.com/svgjs" viewBox="0.053 0 10.893 12" fill="#181718" x="143" y="45"><svg xmlns="http://www.w3.org/2000/svg" xmlns:xlink="http://www.w3.org/1999/xlink" width="11" height="12" viewBox="0.993 0.916 9.38 10.333"><path paint-order="stroke fill markers" fill-rule="evenodd" d="M.993.916h2.44l4.473 6.317h.028V.916h2.439V11.25h-2.44L3.459 4.92h-.025v6.33H.993V.916z"/></svg></svg><svg width="11" height="12" xmlns="http://www.w3.org/2000/svg" xmlns:xlink="http://www.w3.org/1999/xlink" xmlns:svgjs="http://svgjs.com/svgjs" viewBox="0 0.21 11 11.58" fill="#181718" x="154" y="45"><svg xmlns="http://www.w3.org/2000/svg" xmlns:xlink="http://www.w3.org/1999/xlink" width="11" height="12" viewBox="0.617 0.916 9.815 10.333"><path paint-order="stroke fill markers" fill-rule="evenodd" d="M3.857 9.454l-.648 1.796H.617L4.23.916h2.668l3.534 10.334H7.83L7.22 9.454H3.857zM5.564 4.11h-.026L4.53 7.4H6.56l-.996-3.29z"/></svg></svg></svg><svg width="83" height="8" xmlns="http://www.w3.org/2000/svg" xmlns:xlink="http://www.w3.org/1999/xlink" xmlns:svgjs="http://svgjs.com/svgjs" viewBox="81 63 83 8" x="81" y="63"><svg width="4" height="7" xmlns="http://www.w3.org/2000/svg" xmlns:xlink="http://www.w3.org/1999/xlink" xmlns:svgjs="http://svgjs.com/svgjs" viewBox="0 0.149 4 6.702" fill="#dc1f26" x="81" y="63"><svg xmlns="http://www.w3.org/2000/svg" xmlns:xlink="http://www.w3.org/1999/xlink" width="4" height="7" viewBox="0.259 0.661 3.711 6.217"><path paint-order="stroke fill markers" fill-rule="evenodd" d="M2.452 6.878H1.76V1.304H.259V.66h3.71v.643H2.452v5.574z"/></svg></svg><svg width="5" height="7" xmlns="http://www.w3.org/2000/svg" xmlns:xlink="http://www.w3.org/1999/xlink" xmlns:svgjs="http://svgjs.com/svgjs" viewBox="0.476 0 4.048 7" fill="#dc1f26" x="85" y="63"><svg xmlns="http://www.w3.org/2000/svg" xmlns:xlink="http://www.w3.org/1999/xlink" width="5" height="7" viewBox="0.655 0.661 3.595 6.217"><path paint-order="stroke fill markers" fill-rule="evenodd" d="M1.348 6.878H.655V.66h.898c1.18 0 2.276.313 2.276 1.714 0 .957-.601 1.633-1.558 1.716l1.98 2.787H3.4l-1.88-2.73h-.173v2.73zm0-3.34h.214c.783 0 1.575-.149 1.575-1.113 0-1.022-.75-1.121-1.584-1.121h-.205v2.234z"/></svg></svg><svg width="7" height="7" xmlns="http://www.w3.org/2000/svg" xmlns:xlink="http://www.w3.org/1999/xlink" xmlns:svgjs="http://svgjs.com/svgjs" viewBox="0.457 0 6.087 7" fill="#dc1f26" x="89" y="63"><svg xmlns="http://www.w3.org/2000/svg" xmlns:xlink="http://www.w3.org/1999/xlink" width="7" height="7" viewBox="0.524 0.364 5.664 6.514"><path paint-order="stroke fill markers" fill-rule="evenodd" d="M2.033 5.113l-.751 1.765H.524L3.393.364l2.795 6.514H5.42l-.734-1.765H2.033zM3.376 1.98L2.313 4.47h2.102L3.376 1.98z"/></svg></svg><svg width="7" height="8" xmlns="http://www.w3.org/2000/svg" xmlns:xlink="http://www.w3.org/1999/xlink" xmlns:svgjs="http://svgjs.com/svgjs" viewBox="0.222 0 6.556 8" fill="#dc1f26" x="95" y="63"><svg xmlns="http://www.w3.org/2000/svg" xmlns:xlink="http://www.w3.org/1999/xlink" width="7" height="8" viewBox="0.882 0.397 5.541 6.761"><path paint-order="stroke fill markers" fill-rule="evenodd" d="M.882.397L5.73 5.476V.66h.693v6.497L1.576 2.087v4.79H.882V.398z"/></svg></svg><svg width="5" height="7" xmlns="http://www.w3.org/2000/svg" xmlns:xlink="http://www.w3.org/1999/xlink" xmlns:svgjs="http://svgjs.com/svgjs" viewBox="0.382 0 4.236 7" fill="#dc1f26" x="102" y="63"><svg xmlns="http://www.w3.org/2000/svg" xmlns:xlink="http://www.w3.org/1999/xlink" width="5" height="7" viewBox="0.398 0.554 3.892 6.431"><path paint-order="stroke fill markers" fill-rule="evenodd" d="M3.515 1.873c-.247-.429-.544-.676-1.071-.676-.553 0-1.032.395-1.032.964 0 .536.553.784.974.973l.411.182c.808.354 1.493.758 1.493 1.748 0 1.088-.874 1.921-1.954 1.921-.997 0-1.74-.643-1.938-1.608l.677-.19c.09.635.576 1.155 1.245 1.155.668 0 1.278-.511 1.278-1.212 0-.726-.57-.973-1.147-1.238l-.379-.164C1.347 3.398.72 3.028.72 2.137c0-.965.816-1.583 1.74-1.583.693 0 1.278.354 1.608.964l-.553.355z"/></svg></svg><svg width="6" height="7" xmlns="http://www.w3.org/2000/svg" xmlns:xlink="http://www.w3.org/1999/xlink" xmlns:svgjs="http://svgjs.com/svgjs" viewBox="0.54 0 4.921 7" fill="#dc1f26" x="109" y="63"><svg xmlns="http://www.w3.org/2000/svg" xmlns:xlink="http://www.w3.org/1999/xlink" width="6" height="7" viewBox="0.797 0.661 4.37 6.217"><path paint-order="stroke fill markers" fill-rule="evenodd" d="M4.136.66h.932L2.15 3.556l3.018 3.323H4.21L1.663 4.025l-.173.173v2.68H.797V.66h.693v2.663L4.136.66z"/></svg></svg><svg width="7" height="7" xmlns="http://www.w3.org/2000/svg" xmlns:xlink="http://www.w3.org/1999/xlink" xmlns:svgjs="http://svgjs.com/svgjs" viewBox="0 0.027 7 6.946" fill="#dc1f26" x="114" y="63"><svg xmlns="http://www.w3.org/2000/svg" xmlns:xlink="http://www.w3.org/1999/xlink" width="7" height="7" viewBox="0.498 0.554 6.481 6.431"><path paint-order="stroke fill markers" fill-rule="evenodd" d="M6.98 3.777c0 1.79-1.469 3.208-3.241 3.208-1.773 0-3.24-1.418-3.24-3.208 0-1.78 1.467-3.223 3.24-3.223 1.772 0 3.24 1.443 3.24 3.223zM1.19 3.77c0 1.402 1.138 2.573 2.548 2.573 1.41 0 2.548-1.171 2.548-2.573 0-1.41-1.122-2.572-2.548-2.572-1.427 0-2.548 1.162-2.548 2.572z"/></svg></svg><svg width="7" height="8" xmlns="http://www.w3.org/2000/svg" xmlns:xlink="http://www.w3.org/1999/xlink" xmlns:svgjs="http://svgjs.com/svgjs" viewBox="0.222 0 6.556 8" fill="#dc1f26" x="121" y="63"><svg xmlns="http://www.w3.org/2000/svg" xmlns:xlink="http://www.w3.org/1999/xlink" width="7" height="8" viewBox="0.938 0.397 5.541 6.761"><path paint-order="stroke fill markers" fill-rule="evenodd" d="M.938.397l4.848 5.079V.66h.693v6.497L1.63 2.087v4.79H.938V.398z"/></svg></svg><svg width="4" height="7" xmlns="http://www.w3.org/2000/svg" xmlns:xlink="http://www.w3.org/1999/xlink" xmlns:svgjs="http://svgjs.com/svgjs" viewBox="0 0.149 4 6.702" fill="#dc1f26" x="128" y="63"><svg xmlns="http://www.w3.org/2000/svg" xmlns:xlink="http://www.w3.org/1999/xlink" width="4" height="7" viewBox="0.207 0.661 3.71 6.217"><path paint-order="stroke fill markers" fill-rule="evenodd" d="M2.4 6.878h-.693V1.304h-1.5V.66h3.71v.643H2.4v5.574z"/></svg></svg><svg width="2" height="7" xmlns="http://www.w3.org/2000/svg" xmlns:xlink="http://www.w3.org/1999/xlink" xmlns:svgjs="http://svgjs.com/svgjs" viewBox="0.61 0 0.78 7" fill="#dc1f26" x="132" y="63"><svg xmlns="http://www.w3.org/2000/svg" xmlns:xlink="http://www.w3.org/1999/xlink" width="2" height="7" viewBox="0.62 0.661 0.692 6.217"><path paint-order="stroke fill markers" fill-rule="evenodd" d="M1.312 6.878H.62V.66h.692v6.217z"/></svg></svg><svg width="7" height="8" xmlns="http://www.w3.org/2000/svg" xmlns:xlink="http://www.w3.org/1999/xlink" xmlns:svgjs="http://svgjs.com/svgjs" viewBox="0.222 0 6.556 8" fill="#dc1f26" x="134" y="63"><svg xmlns="http://www.w3.org/2000/svg" xmlns:xlink="http://www.w3.org/1999/xlink" width="7" height="8" viewBox="0.591 0.397 5.541 6.761"><path paint-order="stroke fill markers" fill-rule="evenodd" d="M.591.397l4.848 5.079V.66h.693v6.497L1.283 2.087v4.79H.591V.398z"/></svg></svg><svg width="4" height="7" xmlns="http://www.w3.org/2000/svg" xmlns:xlink="http://www.w3.org/1999/xlink" xmlns:svgjs="http://svgjs.com/svgjs" viewBox="0.185 0 3.63 7" fill="#dc1f26" x="141" y="63"><svg xmlns="http://www.w3.org/2000/svg" xmlns:xlink="http://www.w3.org/1999/xlink" width="4" height="7" viewBox="0.404 0.661 3.224 6.217"><path paint-order="stroke fill markers" fill-rule="evenodd" d="M.404.66h3.224v.644H1.096V3.15h2.457v.642H1.096v2.441h2.532v.644H.404V.66z"/></svg></svg><svg width="7" height="8" xmlns="http://www.w3.org/2000/svg" xmlns:xlink="http://www.w3.org/1999/xlink" xmlns:svgjs="http://svgjs.com/svgjs" viewBox="0.222 0 6.556 8" fill="#dc1f26" x="145" y="63"><svg xmlns="http://www.w3.org/2000/svg" xmlns:xlink="http://www.w3.org/1999/xlink" width="7" height="8" viewBox="0.825 0.397 5.541 6.761"><path paint-order="stroke fill markers" fill-rule="evenodd" d="M.825.397l4.848 5.079V.66h.692v6.497L1.517 2.087v4.79H.825V.398z"/></svg></svg><svg width="4" height="7" xmlns="http://www.w3.org/2000/svg" xmlns:xlink="http://www.w3.org/1999/xlink" xmlns:svgjs="http://svgjs.com/svgjs" viewBox="0 0.149 4 6.702" fill="#dc1f26" x="152" y="63"><svg xmlns="http://www.w3.org/2000/svg" xmlns:xlink="http://www.w3.org/1999/xlink" width="4" height="7" viewBox="0.093 0.661 3.71 6.217"><path paint-order="stroke fill markers" fill-rule="evenodd" d="M2.286 6.878h-.692V1.304h-1.5V.66h3.71v.643H2.285v5.574z"/></svg></svg><svg width="6" height="7" xmlns="http://www.w3.org/2000/svg" xmlns:xlink="http://www.w3.org/1999/xlink" xmlns:svgjs="http://svgjs.com/svgjs" viewBox="0 0.05 6 6.899" fill="#dc1f26" x="155" y="63"><svg xmlns="http://www.w3.org/2000/svg" xmlns:xlink="http://www.w3.org/1999/xlink" width="6" height="7" viewBox="0.252 0.364 5.665 6.514"><path paint-order="stroke fill markers" fill-rule="evenodd" d="M1.762 5.113l-.75 1.765h-.76L3.122.364l2.795 6.514H5.15l-.734-1.765H1.762zM3.105 1.98L2.042 4.47h2.102L3.105 1.98z"/></svg></svg><svg width="3" height="7" xmlns="http://www.w3.org/2000/svg" xmlns:xlink="http://www.w3.org/1999/xlink" xmlns:svgjs="http://svgjs.com/svgjs" viewBox="0.144 0 2.711 7" fill="#dc1f26" x="161" y="63"><svg xmlns="http://www.w3.org/2000/svg" width="3" height="7" viewBox="0.57 0.661 2.408 6.217"><path paint-order="stroke fill markers" fill-rule="evenodd" d="M1.263 6.234h1.715v.644H.57V.66h.693v5.573z"/></svg></svg></svg></svg>