<svg xmlns="http://www.w3.org/2000/svg" width="491.262" height="204.18" viewBox="0 0 491.262 204.18">
  <g id="Group_450" data-name="Group 450" transform="translate(-8 -9)" opacity="0.3">
    <path id="Path_1121" data-name="Path 1121" d="M2928.069,2363.178h30.291v22.067h-32.013Z" transform="translate(-2510.858 -2233.678)" fill="#737886"/>
    <path id="Path_1122" data-name="Path 1122" d="M3012.979,2363.178h30.292v22.067h-32.011Z" transform="translate(-2576.878 -2233.678)" fill="#737886"/>
    <g id="Group_245" data-name="Group 245" transform="translate(8 9)">
      <path id="Path_1123" data-name="Path 1123" d="M1729.155,2391.014l44.769.494,24.966-1.051,41.138,2.878,76.857,4.79,62.853.154-10.651,36.906-227.406-11.748Z" transform="translate(-1580.076 -2254.887)" fill="#600505"/>
      <path id="Path_1124" data-name="Path 1124" d="M1927.38,2395.422v16.437h.659v-16.681Z" transform="translate(-1734.19 -2258.557)" fill="#433f3d"/>
      <path id="Path_1125" data-name="Path 1125" d="M1939.974,2395.422v16.437h.659v-16.681Z" transform="translate(-1743.982 -2258.557)" fill="#433f3d"/>
      <rect id="Rectangle_244" data-name="Rectangle 244" width="2.802" height="1.021" transform="translate(193.519 145.647)" fill="#433f3d"/>
      <path id="Path_1126" data-name="Path 1126" d="M2114.823,2444.571c.239.052,23.1.522,29.084.645a1.447,1.447,0,0,1,1.418,1.448h0a1.449,1.449,0,0,1-1.449,1.449h-29.053Z" transform="translate(-1879.921 -2296.958)" fill="#433f3d"/>
      <path id="Path_1127" data-name="Path 1127" d="M2147.978,2400.874c-.014.915,0,10.9,0,10.9h-.544v-10.9Z" transform="translate(-1905.276 -2262.986)" fill="#433f3d"/>
      <path id="Path_1128" data-name="Path 1128" d="M2156.726,2400.874c-.012.915,0,10.9,0,10.9h-.542v-10.9Z" transform="translate(-1912.079 -2262.986)" fill="#433f3d"/>
      <path id="Path_1129" data-name="Path 1129" d="M2165.475,2400.874c-.012.915,0,10.9,0,10.9h-.543v-10.9Z" transform="translate(-1918.88 -2262.986)" fill="#433f3d"/>
      <path id="Path_1130" data-name="Path 1130" d="M2174.225,2400.874c-.014.915,0,10.9,0,10.9h-.544v-10.9Z" transform="translate(-1925.682 -2262.986)" fill="#433f3d"/>
      <path id="Path_1131" data-name="Path 1131" d="M2182.973,2400.874c-.012.915,0,10.9,0,10.9h-.543v-10.9Z" transform="translate(-1932.485 -2262.986)" fill="#433f3d"/>
      <path id="Path_1132" data-name="Path 1132" d="M2191.722,2400.874c-.012.915,0,10.9,0,10.9h-.543v-10.9Z" transform="translate(-1939.286 -2262.986)" fill="#433f3d"/>
      <path id="Path_1133" data-name="Path 1133" d="M2200.472,2400.874c-.014.915,0,10.9,0,10.9h-.544v-10.9Z" transform="translate(-1946.089 -2262.986)" fill="#433f3d"/>
      <path id="Path_1134" data-name="Path 1134" d="M2209.22,2400.874c-.013.915,0,10.9,0,10.9h-.544v-10.9Z" transform="translate(-1952.891 -2262.986)" fill="#433f3d"/>
      <path id="Path_1135" data-name="Path 1135" d="M2217.97,2400.874c-.012.915,0,10.9,0,10.9h-.543v-10.9Z" transform="translate(-1959.694 -2262.986)" fill="#433f3d"/>
      <path id="Path_1136" data-name="Path 1136" d="M2226.72,2400.874c-.013.915,0,10.9,0,10.9h-.544v-10.9Z" transform="translate(-1966.496 -2262.986)" fill="#433f3d"/>
      <path id="Path_1137" data-name="Path 1137" d="M2235.468,2400.874c-.012.915,0,10.9,0,10.9h-.543v-10.9Z" transform="translate(-1973.298 -2262.986)" fill="#433f3d"/>
      <path id="Path_1138" data-name="Path 1138" d="M2244.217,2400.874c-.012.915,0,10.9,0,10.9h-.542v-10.9Z" transform="translate(-1980.101 -2262.986)" fill="#433f3d"/>
      <path id="Path_1139" data-name="Path 1139" d="M2289.037,2372.7l-78.607-6.169v.729l78.607,6.427Z" transform="translate(-1954.252 -2236.287)" fill="#e3e4e2"/>
      <path id="Path_1140" data-name="Path 1140" d="M2510.49,2337.1v-.147h.9v-6.224h3.129v5.9h1.327v-5.959h3.3v6.078s.708.34.708,0v-6.078h1.976v-1.032h-11.976v7.463" transform="translate(-2187.051 -2207.604)" fill="#cbcaca"/>
      <path id="Path_1141" data-name="Path 1141" d="M2505.263,2360.055h13.611v2.883h-12.509v-1.422h-1.1Z" transform="translate(-2183.478 -2231.25)" fill="#3e3e4c"/>
      <path id="Path_1142" data-name="Path 1142" d="M3117.524,2185.633h8.575s12.114,20.138,13.294,22.341.63,8.777-2.99,10.131-8.1,1.911-11.4-2.537a113.676,113.676,0,0,0-7.475-8.853Z" transform="translate(-2659.493 -2095.642)" fill="#6c575f"/>
      <path id="Path_1143" data-name="Path 1143" d="M2919.211,2103.444h4.482v1.336h-4.482" transform="translate(-2505.311 -2031.743)" fill="#bcbcbd"/>
      <path id="Path_1144" data-name="Path 1144" d="M2855.228,2093.73v4.856l14.553,3.717v-8.079Z" transform="translate(-2455.565 -2024.19)" fill="#bcbcbd"/>
      <path id="Path_1145" data-name="Path 1145" d="M1864.506,2394.256c-.78,1.166-4.2,8.718-4.2,8.718v6.607h1.061V2403.8l4.6-9.543Z" transform="translate(-1682.041 -2257.841)" fill="#898893"/>
      <path id="Path_1146" data-name="Path 1146" d="M1877.232,2394.256c-.78,1.166-4.2,8.718-4.2,8.718v9.745h1.062v-8.92l4.6-9.543Z" transform="translate(-1691.934 -2257.841)" fill="#898893"/>
      <path id="Path_1147" data-name="Path 1147" d="M2505.947,2433.064l-16.208,13.458,61.448,4.794,16.912-19.471Z" transform="translate(-2171.408 -2287.065)" fill="#600505"/>
      <path id="Path_1148" data-name="Path 1148" d="M1666.056,2340.819l28.083,1.337v1.259l-27.454-1.3Z" transform="translate(-1531.018 -2216.295)" fill="#e3e4e2"/>
      <path id="Path_1149" data-name="Path 1149" d="M2805.149,2085.118l29.6,5.92V2079.48h17.9l14.94,4.793-2.537,1.55v3.1l.7.987v10.571h9.443v8.173h1.41v2.679h-1.127v28.188h2.4v6.344h23.538v4.227h-4.088l-2.82,14.516h-2.394l2.324-14.587h-3.523v14.657h-2.536v-14.8h-3.1v14.8h-2.678v-15.362h-16.63v14.8h-3.523v-15.223h-28.893v14.466l-28.4-3.52Z" transform="translate(-2416.632 -2013.111)" fill="#e3e3e3"/>
      <path id="Path_1150" data-name="Path 1150" d="M2719.042,1951.967h30.915l-8.732,5.674h-6.071" transform="translate(-2349.687 -1913.973)" fill="#e3e3e3"/>
      <rect id="Rectangle_245" data-name="Rectangle 245" width="2.622" height="16.576" transform="translate(216.769 137.825)" fill="#ab8f8b"/>
      <path id="Path_1151" data-name="Path 1151" d="M2079.326,2397.213v17.536h1.964V2396.79Z" transform="translate(-1852.325 -2259.81)" fill="#ab8f8b"/>
      <rect id="Rectangle_246" data-name="Rectangle 246" width="2.114" height="19.309" transform="translate(233.062 136.416)" fill="#ab8f8b"/>
      <path id="Path_1152" data-name="Path 1152" d="M2795.942,1954.984h-9.161l1.039-31.158.06-1.792.453-13.558h5.214Z" transform="translate(-2402.351 -1880.159)" fill="#e3e3e3"/>
      <path id="Path_1153" data-name="Path 1153" d="M1431.886,1878.859l-.264,35.383-.334.63-.909,61.906h-2.14l1.41-61.59.916-.846Z" transform="translate(-1346.122 -1857.134)" fill="#6a6e76"/>
      <path id="Path_1154" data-name="Path 1154" d="M1442.479,1975.182h-4.625l.909-61.9.334-.63.265-35.384v-.013l.018-.444,1.127,35.94.986.845Z" transform="translate(-1353.597 -1855.538)" fill="#e3e4e2"/>
      <path id="Path_1155" data-name="Path 1155" d="M2596.693,2131.346v30.3h8.456v18.6l-21.139-.518-4.934-.122-11.664-.286-31.182-.766v-47.495l-7.469-3.526-.07-1.9h1.128v-2.82h-1.128v-4.228h4.157v-1.621l1.622-1.621h9.724v-5.92h-6.625l7.893-4.932h44.677v11.416h10.289v2.115h5.708v8.1Z" transform="translate(-2201.692 -2032.562)" fill="#737886"/>
      <path id="Path_1156" data-name="Path 1156" d="M1879.187,2467.725l196.327,9.583V2479l-196.327-9.585Z" transform="translate(-1696.721 -2314.96)" fill="#ebf4f8"/>
      <rect id="Rectangle_247" data-name="Rectangle 247" width="1.128" height="6.342" transform="translate(188.949 153.751)" fill="#ebf4f8"/>
      <rect id="Rectangle_248" data-name="Rectangle 248" width="1.128" height="6.342" transform="translate(196.559 153.751)" fill="#ebf4f8"/>
      <rect id="Rectangle_249" data-name="Rectangle 249" width="1.128" height="6.342" transform="translate(204.17 154.879)" fill="#ebf4f8"/>
      <rect id="Rectangle_250" data-name="Rectangle 250" width="1.128" height="6.342" transform="translate(211.781 155.724)" fill="#ebf4f8"/>
      <rect id="Rectangle_251" data-name="Rectangle 251" width="1.128" height="6.342" transform="translate(219.391 155.724)" fill="#ebf4f8"/>
      <rect id="Rectangle_252" data-name="Rectangle 252" width="1.128" height="6.342" transform="translate(227.002 156.288)" fill="#ebf4f8"/>
      <rect id="Rectangle_253" data-name="Rectangle 253" width="1.128" height="6.342" transform="translate(234.613 156.288)" fill="#ebf4f8"/>
      <rect id="Rectangle_254" data-name="Rectangle 254" width="1.128" height="6.342" transform="translate(242.223 156.993)" fill="#ebf4f8"/>
      <rect id="Rectangle_255" data-name="Rectangle 255" width="1.128" height="6.342" transform="translate(249.834 157.275)" fill="#ebf4f8"/>
      <rect id="Rectangle_256" data-name="Rectangle 256" width="1.128" height="6.342" transform="translate(257.445 157.697)" fill="#ebf4f8"/>
      <rect id="Rectangle_257" data-name="Rectangle 257" width="1.128" height="6.342" transform="translate(265.056 158.12)" fill="#ebf4f8"/>
      <rect id="Rectangle_258" data-name="Rectangle 258" width="1.128" height="6.342" transform="translate(272.666 158.12)" fill="#ebf4f8"/>
      <rect id="Rectangle_259" data-name="Rectangle 259" width="1.128" height="6.342" transform="translate(280.277 158.402)" fill="#ebf4f8"/>
      <rect id="Rectangle_260" data-name="Rectangle 260" width="1.128" height="6.342" transform="translate(287.888 158.825)" fill="#ebf4f8"/>
      <rect id="Rectangle_261" data-name="Rectangle 261" width="1.128" height="6.342" transform="translate(295.498 159.53)" fill="#ebf4f8"/>
      <rect id="Rectangle_262" data-name="Rectangle 262" width="1.128" height="6.342" transform="translate(303.109 159.811)" fill="#ebf4f8"/>
      <rect id="Rectangle_263" data-name="Rectangle 263" width="1.128" height="6.342" transform="translate(310.72 160.375)" fill="#ebf4f8"/>
      <rect id="Rectangle_264" data-name="Rectangle 264" width="1.128" height="6.342" transform="translate(318.33 160.375)" fill="#ebf4f8"/>
      <rect id="Rectangle_265" data-name="Rectangle 265" width="1.128" height="6.342" transform="translate(325.941 160.516)" fill="#ebf4f8"/>
      <rect id="Rectangle_266" data-name="Rectangle 266" width="1.128" height="6.342" transform="translate(333.552 161.08)" fill="#ebf4f8"/>
      <rect id="Rectangle_267" data-name="Rectangle 267" width="1.128" height="6.342" transform="translate(341.162 161.926)" fill="#ebf4f8"/>
      <rect id="Rectangle_268" data-name="Rectangle 268" width="1.128" height="6.342" transform="translate(348.773 162.207)" fill="#ebf4f8"/>
      <rect id="Rectangle_269" data-name="Rectangle 269" width="1.128" height="6.342" transform="translate(356.384 162.63)" fill="#ebf4f8"/>
      <rect id="Rectangle_270" data-name="Rectangle 270" width="1.128" height="6.342" transform="translate(363.995 163.053)" fill="#ebf4f8"/>
      <rect id="Rectangle_271" data-name="Rectangle 271" width="1.128" height="6.342" transform="translate(371.605 163.617)" fill="#ebf4f8"/>
      <path id="Path_1157" data-name="Path 1157" d="M2605.009,2139.015h5.78l.564,4.652h-5.638Z" transform="translate(-2261.027 -2059.398)" fill="#08080c"/>
      <path id="Path_1158" data-name="Path 1158" d="M2767.781,2139.015h5.779l.562,4.652h-5.637Z" transform="translate(-2387.579 -2059.398)" fill="#08080c"/>
      <path id="Path_1159" data-name="Path 1159" d="M2634.777,2139.015h8.88l.563,4.652h-8.74Z" transform="translate(-2284.171 -2059.398)" fill="#08080c"/>
      <path id="Path_1160" data-name="Path 1160" d="M2679.111,2139.015h8.879l.564,4.652h-8.739Z" transform="translate(-2318.64 -2059.398)" fill="#08080c"/>
      <path id="Path_1161" data-name="Path 1161" d="M2723.446,2139.015h8.879l.563,4.652h-8.739Z" transform="translate(-2353.109 -2059.398)" fill="#08080c"/>
      <rect id="Rectangle_272" data-name="Rectangle 272" width="2.537" height="3.946" transform="translate(350.887 98.785)" fill="#08080c"/>
      <rect id="Rectangle_273" data-name="Rectangle 273" width="2.537" height="3.946" transform="translate(356.102 98.785)" fill="#08080c"/>
      <rect id="Rectangle_274" data-name="Rectangle 274" width="2.537" height="3.946" transform="translate(360.612 98.785)" fill="#08080c"/>
      <rect id="Rectangle_275" data-name="Rectangle 275" width="2.537" height="3.946" transform="translate(367.518 98.785)" fill="#08080c"/>
      <rect id="Rectangle_276" data-name="Rectangle 276" width="2.537" height="3.946" transform="translate(372.169 98.785)" fill="#08080c"/>
      <rect id="Rectangle_277" data-name="Rectangle 277" width="2.537" height="3.946" transform="translate(366.813 117.248)" fill="#08080c"/>
      <rect id="Rectangle_278" data-name="Rectangle 278" width="2.537" height="3.946" transform="translate(360.612 117.248)" fill="#08080c"/>
      <rect id="Rectangle_279" data-name="Rectangle 279" width="2.537" height="3.946" transform="translate(345.954 117.248)" fill="#08080c"/>
      <rect id="Rectangle_280" data-name="Rectangle 280" width="2.537" height="3.946" transform="translate(339.753 117.248)" fill="#08080c"/>
      <rect id="Rectangle_281" data-name="Rectangle 281" width="2.537" height="3.946" transform="translate(381.048 117.248)" fill="#08080c"/>
      <rect id="Rectangle_282" data-name="Rectangle 282" width="2.537" height="3.946" transform="translate(387.954 117.248)" fill="#08080c"/>
      <rect id="Rectangle_283" data-name="Rectangle 283" width="2.537" height="3.946" transform="translate(377.384 98.785)" fill="#08080c"/>
      <rect id="Rectangle_284" data-name="Rectangle 284" width="1.55" height="3.383" transform="translate(401.202 98.926)" fill="#08080c"/>
      <rect id="Rectangle_285" data-name="Rectangle 285" width="1.55" height="3.383" transform="translate(416.706 100.194)" fill="#08080c"/>
      <rect id="Rectangle_286" data-name="Rectangle 286" width="1.55" height="3.383" transform="translate(420.511 100.194)" fill="#08080c"/>
      <rect id="Rectangle_287" data-name="Rectangle 287" width="1.55" height="3.383" transform="translate(436.86 101.604)" fill="#08080c"/>
      <rect id="Rectangle_288" data-name="Rectangle 288" width="1.55" height="3.383" transform="translate(440.524 101.886)" fill="#08080c"/>
      <rect id="Rectangle_289" data-name="Rectangle 289" width="1.55" height="3.383" transform="translate(446.726 102.449)" fill="#08080c"/>
      <rect id="Rectangle_290" data-name="Rectangle 290" width="1.55" height="3.383" transform="translate(450.39 102.731)" fill="#08080c"/>
      <rect id="Rectangle_291" data-name="Rectangle 291" width="1.55" height="3.383" transform="translate(433.336 119.926)" fill="#08080c"/>
      <rect id="Rectangle_292" data-name="Rectangle 292" width="1.55" height="3.383" transform="translate(437.001 120.208)" fill="#08080c"/>
      <rect id="Rectangle_293" data-name="Rectangle 293" width="1.55" height="3.383" transform="translate(413.041 118.798)" fill="#08080c"/>
      <rect id="Rectangle_294" data-name="Rectangle 294" width="1.55" height="3.383" transform="translate(400.921 117.53)" fill="#08080c"/>
      <rect id="Rectangle_295" data-name="Rectangle 295" width="1.55" height="3.383" transform="translate(416.706 119.08)" fill="#08080c"/>
      <path id="Path_1162" data-name="Path 1162" d="M2608.809,2092.433v-2.819h42.281v.7h-41.718v2.114Z" transform="translate(-2263.982 -2020.989)" fill="#e2e2e3"/>
      <path id="Path_1163" data-name="Path 1163" d="M2796,2089.967v2.316h.638l-.012-2.256Z" transform="translate(-2409.522 -2021.264)" fill="#e2e2e3"/>
      <path id="Path_1164" data-name="Path 1164" d="M2714.242,2360.055V2378.3l-11.664-.286-.033-17.96Z" transform="translate(-2336.861 -2231.25)" fill="#d6d6d7"/>
      <path id="Path_1165" data-name="Path 1165" d="M2760.046,2360.055v18.367l-4.933-.12v-18.246Z" transform="translate(-2377.73 -2231.25)" fill="#81808f"/>
      <path id="Path_1166" data-name="Path 1166" d="M2255.937,2412.5l67.1,4.284v1.236l-68.15-3.88-.411-1.643" transform="translate(-1988.498 -2272.025)" fill="#8b7d7d"/>
      <path id="Path_1167" data-name="Path 1167" d="M1643.357,2375.772l85.279,1.353v1.233l-85.279-.946-.411-1.646" transform="translate(-1513.051 -2243.466)" fill="#8b7d7d"/>
      <path id="Path_1168" data-name="Path 1168" d="M1643.357,2384.638l85.279,1.354v1.233l-85.279-.947-.411-1.644" transform="translate(-1513.051 -2250.359)" fill="#8b7d7d"/>
      <path id="Path_1169" data-name="Path 1169" d="M1064.085,2266.96c4.571.044,28.732-.005,33.284-.016a.74.74,0,0,1,.74.74v.014a.74.74,0,0,1-.739.74h-33.292a.74.74,0,0,1-.739-.74h0A.739.739,0,0,1,1064.085,2266.96Z" transform="translate(-1062.423 -2158.859)" fill="#e3e4e2"/>
      <rect id="Rectangle_296" data-name="Rectangle 296" width="0.885" height="8.22" transform="translate(1.153 108.832)" fill="#e3e4e2"/>
      <rect id="Rectangle_297" data-name="Rectangle 297" width="0.885" height="8.22" transform="translate(5.4 108.832)" fill="#e3e4e2"/>
      <rect id="Rectangle_298" data-name="Rectangle 298" width="0.885" height="8.22" transform="translate(16.315 108.832)" fill="#e3e4e2"/>
      <rect id="Rectangle_299" data-name="Rectangle 299" width="0.885" height="8.22" transform="translate(23.395 108.832)" fill="#e3e4e2"/>
      <rect id="Rectangle_300" data-name="Rectangle 300" width="0.885" height="8.22" transform="translate(30.592 108.832)" fill="#e3e4e2"/>
      <rect id="Rectangle_301" data-name="Rectangle 301" width="0.885" height="8.22" transform="translate(33.365 108.832)" fill="#e3e4e2"/>
      <path id="Path_1170" data-name="Path 1170" d="M3018.589,2079.48l14.941,4.793-2.537,1.55-12.4-3.626" transform="translate(-2582.575 -2013.111)" fill="#737886"/>
      <path id="Path_1171" data-name="Path 1171" d="M2733.219,1955.847l-.059,1.793-16.681-5.674h9.123Z" transform="translate(-2347.693 -1913.973)" fill="#a9acb3"/>
      <path id="Path_1172" data-name="Path 1172" d="M2740.958,2031.81h22.458l-6.343,4.12h-4.409" transform="translate(-2366.725 -1976.048)" fill="#e3e3e3"/>
      <path id="Path_1173" data-name="Path 1173" d="M2751.259,2034.628l-.043,1.3-12.118-4.12h6.629Z" transform="translate(-2365.277 -1976.048)" fill="#a9acb3"/>
      <path id="Path_1174" data-name="Path 1174" d="M2752.782,1895.526h19.826l-5.6,3.639h-3.893" transform="translate(-2375.917 -1870.092)" fill="#e3e3e3"/>
      <path id="Path_1175" data-name="Path 1175" d="M2760.693,1897.506l-.042,1.26-9.513-3.24h5.853Z" transform="translate(-2374.639 -1870.092)" fill="#a9acb3"/>
      <rect id="Rectangle_302" data-name="Rectangle 302" width="3.717" height="8.053" transform="translate(386.504 17.758)" fill="#e3e3e3"/>
      <path id="Path_1176" data-name="Path 1176" d="M2793.562,1829.2h-8.731v-5.427a4.366,4.366,0,0,1,4.365-4.365h0a4.366,4.366,0,0,1,4.366,4.365Z" transform="translate(-2400.834 -1810.912)" fill="#a9acb3"/>
      <path id="Path_1177" data-name="Path 1177" d="M2827.949,1807.042l.841-25.812.411,25.812Z" transform="translate(-2434.357 -1781.229)" fill="#e3e3e3"/>
      <path id="Path_1178" data-name="Path 1178" d="M3029.357,2130.359v-11.327a3.3,3.3,0,0,1,3.664-3.48l6.575,2v11.21l-1.417,1.888Z" transform="translate(-2590.947 -2041.156)" fill="#6c575f"/>
      <rect id="Rectangle_303" data-name="Rectangle 303" width="1.18" height="36.225" transform="translate(430.301 94.986)" fill="#bcbcbd"/>
      <path id="Path_1179" data-name="Path 1179" d="M2938.408,2089.324c.3-.188,17.414,0,17.414,0v20.107h-.884v-19.588H2938.3Z" transform="translate(-2520.152 -2020.7)" fill="#bcbcbd"/>
      <path id="Path_1180" data-name="Path 1180" d="M2243.32,2403.783c-.013.546,11.25,19.278,11.25,19.278h2.516l-12.207-19.672Z" transform="translate(-1979.824 -2264.94)" fill="#8b7d7d"/>
      <path id="Path_1181" data-name="Path 1181" d="M2868.036,2497.81c-1.66,1.96-13.257,25.9-17.942,30.438s-82.312,5.542-82.312,5.542,33.815-5.965,45.144-10.613,23.952-22.953,32.684-23.535S2868.036,2497.81,2868.036,2497.81Z" transform="translate(-2387.579 -2338.351)" fill="#aa1717"/>
      <path id="Path_1182" data-name="Path 1182" d="M1881.087,2272.019v4.946h2.042v-4.8Z" transform="translate(-1698.198 -2162.805)" fill="#8b7d7d"/>
      <rect id="Rectangle_304" data-name="Rectangle 304" width="20.059" height="5.474" transform="translate(181.095 113.747)" fill="#e3e4e2"/>
      <path id="Path_1183" data-name="Path 1183" d="M1785.45,2316.987h55.529v18.6l-55.529-1.55Z" transform="translate(-1623.844 -2197.766)" fill="#898893"/>
      <path id="Path_1184" data-name="Path 1184" d="M1139.264,2105.681l64.339-56.172-63.434,57.352h-1.534Z" transform="translate(-1120.963 -1989.809)" fill="#898893"/>
      <path id="Path_1185" data-name="Path 1185" d="M1392.828,2082.941c-.121.47-10.809,51.563-10.809,51.563h1.533l9.94-50.971Z" transform="translate(-1310.187 -2015.802)" fill="#898893"/>
      <path id="Path_1186" data-name="Path 1186" d="M1421.434,2012.418H1426v2.9h-4.563v-2.9Z" transform="translate(-1340.832 -1960.972)" fill="#6a6e76"/>
      <ellipse id="Ellipse_10" data-name="Ellipse 10" cx="1.313" cy="1.785" rx="1.313" ry="1.785" transform="translate(77.259 50.266)" fill="#6a6e76"/>
      <path id="Path_1187" data-name="Path 1187" d="M1414.115,2013.479h1.269s.206,2.153,0,2.153h-2.212" transform="translate(-1334.407 -1961.796)" fill="#6a6e76"/>
      <path id="Path_1188" data-name="Path 1188" d="M1410.785,2020.9l5.456,5.546.251-.974-5.176-4.837Z" transform="translate(-1332.552 -1967.362)" fill="#6a6e76"/>
      <path id="Path_1189" data-name="Path 1189" d="M1059.831,2305.521c10.243-.148,71.079-.708,132.386,5.589,0,0,30.019,20.155,49.469,30.444v6.484s102.463,5.918,194.918,9.02l.141-6.2,15.49-14.633,13.4-.025v2.114s16.067,1.268,38.617,1.974l3.242-1.69s19.167,1.267,42.986,3.1c0,0-10.288,25.511-24.946,40.59,0,0-145.731,17.618-310.347,7.612s-127.409-20.154-120.361-27.625c6.95-7.366-9.543-30.841-35.416-55.687A.617.617,0,0,1,1059.831,2305.521Z" transform="translate(-1059.221 -2188.789)" fill="#c4201b"/>
      <path id="Path_1190" data-name="Path 1190" d="M1107.129,2326.488s22.152,1.136,48.2,3.946a313.045,313.045,0,0,0,59.758.7c-5.376,4.62-12.029,11.928-13.812,21.987-2.833,15.988,9.232,24.3,4.782,32.56-6.312,11.716-39.542,11.584-53.1-2.831a87.692,87.692,0,0,1-6.449-8.632,222.562,222.562,0,0,1-13.59-22.366C1128.886,2344.87,1121.562,2335.588,1107.129,2326.488Z" transform="translate(-1096.468 -2205.153)" fill="#aa1717"/>
      <path id="Path_1191" data-name="Path 1191" d="M3112.564,2134.582h-19.873l4.228,9.584,1.889-.131-3.79-7.832h15.926l8.456,21.282,3.383,18.181-19.873-24.382h-3.524v2.254h3.382l20.436,25.651,5.3,15.926v13.46h2.523v-27.484Zm12.4,42.563-2.678-13.812,7.892,19.309Z" transform="translate(-2640.187 -2055.951)" fill="#dfdfe2"/>
      <path id="Path_1192" data-name="Path 1192" d="M2262.409,2337.991c.314.079,11.878,0,11.878,0l9.046,1.181v14.4h-1.573v-10.957l-2.158-2.157-4.308-.5v12.521h-1.634v-12.443h-2.205v12.507h-1.65v-12.272h-4.76l-1.318,1.318v10.331h-1.317Z" transform="translate(-1994.666 -2214.096)" fill="#cbcaca"/>
      <rect id="Rectangle_305" data-name="Rectangle 305" width="5.349" height="7.849" transform="translate(298.815 132.627)" fill="#cbcaca"/>
      <path id="Path_1193" data-name="Path 1193" d="M2430.327,2378.1l-4.248-.866v7.849h4.248Z" transform="translate(-2121.915 -2244.603)" fill="#e3e4e2"/>
      <path id="Rectangle_306" data-name="Rectangle 306" d="M2.92,0h0a2.92,2.92,0,0,1,2.92,2.92V9.672a0,0,0,0,1,0,0H0a0,0,0,0,1,0,0V2.92A2.92,2.92,0,0,1,2.92,0Z" transform="translate(241.096 127.73)" fill="#e3e4e2"/>
      <path id="Rectangle_307" data-name="Rectangle 307" d="M2.92,0h0a2.92,2.92,0,0,1,2.92,2.92V9.672a0,0,0,0,1,0,0H0a0,0,0,0,1,0,0V2.92A2.92,2.92,0,0,1,2.92,0Z" transform="translate(247.477 128.153)" fill="#e3e4e2"/>
      <path id="Path_1194" data-name="Path 1194" d="M1881.087,2272.019s57.644,4.229,62.295,4.511,7.188.7,9.443,3.383c.982,1.165,1.55,3.946,1.55,6.482v13.811h-2.748s-.731-11.981-.635-14.515c.141-3.665-3.593-5.286-7.4-5.708s-62.436-6.625-62.436-6.625Z" transform="translate(-1698.199 -2162.805)" fill="#8b7d7d"/>
      <path id="Path_1195" data-name="Path 1195" d="M2116.624,2390.463l98.8,6.125v1.69l-98.8-5.567-.563-2.255" transform="translate(-1880.885 -2254.887)" fill="#8b7d7d"/>
      <path id="Path_1196" data-name="Path 1196" d="M2377.3,2381.471v6.372h.766v-6.119Z" transform="translate(-2083.989 -2247.901)" fill="#e3e4e2"/>
      <path id="Path_1197" data-name="Path 1197" d="M2121.731,2400.874c-.014.915,0,10.9,0,10.9h-.545v-10.9Z" transform="translate(-1884.869 -2262.986)" fill="#433f3d"/>
      <path id="Path_1198" data-name="Path 1198" d="M2130.478,2400.874c-.012.915,0,10.9,0,10.9h-.542v-10.9Z" transform="translate(-1891.672 -2262.986)" fill="#433f3d"/>
      <path id="Path_1199" data-name="Path 1199" d="M2139.229,2400.874c-.013.915,0,10.9,0,10.9h-.544v-10.9Z" transform="translate(-1898.474 -2262.986)" fill="#433f3d"/>
      <path id="Path_1200" data-name="Path 1200" d="M2034.991,2316.987v18.6h18.6v-17.2Z" transform="translate(-1817.855 -2197.766)" fill="#e3e4e2"/>
    </g>
    <path id="Path_1201" data-name="Path 1201" d="M1812.662,2621.228c-31.291,1.7-62.5,5.26-93.871,4.868a349.085,349.085,0,0,1-99.454-16.021c-.872-.271-1.711-.6-2.553-.936a.713.713,0,0,0-.08-.025l-.018,0a.648.648,0,0,0-.619,1.045c2.976,3.852,6,7.661,9.032,11.468a.609.609,0,0,0,.379.225c65.406,11.025,132.364,10.358,198.024.01a.653.653,0,0,0-.134-1.294q-5.347.375-10.707.663Z" transform="translate(-1492.045 -2424.871)" fill="#aa1717"/>
    <path id="Path_1202" data-name="Path 1202" d="M2917.614,2490.953c.942.008,37.094,2.645,42.824,0a188.566,188.566,0,0,0-9.992,19.69c-4.455,10.408-21.235,13.238-33.464,11.823s-35.77.177-29.221-6.725,24.7-7.13,34.295-10.645S2917.614,2490.953,2917.614,2490.953Z" transform="translate(-2479.981 -2333.021)" fill="#aa1717"/>
  </g>
</svg>
