<svg xmlns="http://www.w3.org/2000/svg" width="1849.582" height="768.731" viewBox="0 0 1849.582 768.731">
  <g id="Group_621" data-name="Group 621" transform="translate(-8 -9)" opacity="0.3">
    <path id="Path_1121" data-name="Path 1121" d="M2932.829,2363.178h114.046v83.081H2926.346Z" transform="translate(-1384.169 -1900.5)" fill="#737886"/>
    <path id="Path_1122" data-name="Path 1122" d="M3017.731,2363.178h114.049v83.081h-120.52Z" transform="translate(-1397.947 -1900.5)" fill="#737886"/>
    <g id="Group_245" data-name="Group 245" transform="translate(8 9)">
      <path id="Path_1123" data-name="Path 1123" d="M1729.155,2392.555l168.555,1.859,94-3.958,154.882,10.835,289.365,18.034,236.638.581-40.1,138.947-856.173-44.229Z" transform="translate(-1167.877 -1880.041)" fill="#600505"/>
      <path id="Path_1124" data-name="Path 1124" d="M1927.38,2396.1v61.882h2.48v-62.8Z" transform="translate(-1200.029 -1880.809)" fill="#433f3d"/>
      <path id="Path_1125" data-name="Path 1125" d="M1939.973,2396.1v61.882h2.482v-62.8Z" transform="translate(-1202.07 -1880.809)" fill="#433f3d"/>
      <rect id="Rectangle_244" data-name="Rectangle 244" width="10.551" height="3.844" transform="translate(728.591 548.356)" fill="#433f3d"/>
      <path id="Path_1126" data-name="Path 1126" d="M2114.823,2444.57c.9.2,86.99,1.967,109.5,2.427a5.448,5.448,0,0,1,5.339,5.45h0a5.457,5.457,0,0,1-5.455,5.456H2114.823Z" transform="translate(-1230.428 -1888.816)" fill="#433f3d"/>
      <path id="Path_1127" data-name="Path 1127" d="M2149.484,2400.874c-.053,3.443,0,41.054,0,41.054h-2.05v-41.054Z" transform="translate(-1235.718 -1881.729)" fill="#433f3d"/>
      <path id="Path_1128" data-name="Path 1128" d="M2158.225,2400.874c-.045,3.443,0,41.054,0,41.054h-2.042v-41.054Z" transform="translate(-1237.14 -1881.729)" fill="#433f3d"/>
      <path id="Path_1129" data-name="Path 1129" d="M2166.976,2400.874c-.047,3.443,0,41.054,0,41.054h-2.044v-41.054Z" transform="translate(-1238.556 -1881.729)" fill="#433f3d"/>
      <path id="Path_1130" data-name="Path 1130" d="M2175.729,2400.874c-.052,3.443,0,41.054,0,41.054h-2.048v-41.054Z" transform="translate(-1239.976 -1881.729)" fill="#433f3d"/>
      <path id="Path_1131" data-name="Path 1131" d="M2184.473,2400.874c-.045,3.443,0,41.054,0,41.054h-2.043v-41.054Z" transform="translate(-1241.396 -1881.729)" fill="#433f3d"/>
      <path id="Path_1132" data-name="Path 1132" d="M2193.223,2400.874c-.046,3.443,0,41.054,0,41.054h-2.044v-41.054Z" transform="translate(-1242.813 -1881.729)" fill="#433f3d"/>
      <path id="Path_1133" data-name="Path 1133" d="M2201.977,2400.874c-.052,3.443,0,41.054,0,41.054h-2.05v-41.054Z" transform="translate(-1244.234 -1881.729)" fill="#433f3d"/>
      <path id="Path_1134" data-name="Path 1134" d="M2210.724,2400.874c-.048,3.443,0,41.054,0,41.054h-2.047v-41.054Z" transform="translate(-1245.653 -1881.729)" fill="#433f3d"/>
      <path id="Path_1135" data-name="Path 1135" d="M2219.472,2400.874c-.044,3.443,0,41.054,0,41.054h-2.045v-41.054Z" transform="translate(-1247.07 -1881.729)" fill="#433f3d"/>
      <path id="Path_1136" data-name="Path 1136" d="M2228.223,2400.874c-.05,3.443,0,41.054,0,41.054h-2.047v-41.054Z" transform="translate(-1248.49 -1881.729)" fill="#433f3d"/>
      <path id="Path_1137" data-name="Path 1137" d="M2236.968,2400.874c-.047,3.443,0,41.054,0,41.054h-2.043v-41.054Z" transform="translate(-1249.907 -1881.729)" fill="#433f3d"/>
      <path id="Path_1138" data-name="Path 1138" d="M2245.717,2400.874c-.045,3.443,0,41.054,0,41.054h-2.042v-41.054Z" transform="translate(-1251.329 -1881.729)" fill="#433f3d"/>
      <path id="Path_1139" data-name="Path 1139" d="M2506.384,2389.759l-295.954-23.225v2.743l295.954,24.2Z" transform="translate(-1245.932 -1876.162)" fill="#e3e4e2"/>
      <path id="Path_1140" data-name="Path 1140" d="M2512.233,2357.739v-.553h3.4v-23.434h11.779v22.21h5v-22.437h12.437v22.884s2.667,1.279,2.667,0v-22.884h7.439v-3.886h-45.09v28.1" transform="translate(-1294.501 -1870.178)" fill="#cbcaca"/>
      <path id="Path_1141" data-name="Path 1141" d="M2505.263,2360.055h51.244v10.855h-47.1v-5.354h-4.148Z" transform="translate(-1293.753 -1875.11)" fill="#3e3e4c"/>
      <path id="Path_1142" data-name="Path 1142" d="M3117.524,2185.633h32.287s45.607,75.819,50.05,84.113,2.37,33.044-11.257,38.144-30.5,7.194-42.936-9.551a427.944,427.944,0,0,0-28.144-33.333Z" transform="translate(-1393.057 -1846.821)" fill="#6c575f"/>
      <path id="Path_1143" data-name="Path 1143" d="M2919.212,2103.445h16.875v5.031h-16.875" transform="translate(-1360.894 -1833.492)" fill="#bcbcbd"/>
      <path id="Path_1144" data-name="Path 1144" d="M2855.227,2093.73v18.281l54.793,13.993v-30.417Z" transform="translate(-1350.514 -1831.914)" fill="#bcbcbd"/>
      <path id="Path_1145" data-name="Path 1145" d="M1876.123,2394.256c-2.938,4.391-15.819,32.822-15.819,32.822v24.875h3.995v-21.767l17.329-35.93Z" transform="translate(-1189.15 -1880.657)" fill="#898893"/>
      <path id="Path_1146" data-name="Path 1146" d="M1888.851,2394.256c-2.937,4.391-15.821,32.822-15.821,32.822v36.69h4v-33.582l17.327-35.93Z" transform="translate(-1191.212 -1880.657)" fill="#898893"/>
      <path id="Path_1147" data-name="Path 1147" d="M2550.76,2436.436l-61.022,50.67,231.352,18.048,63.673-73.309Z" transform="translate(-1291.237 -1886.752)" fill="#600505"/>
      <path id="Path_1148" data-name="Path 1148" d="M1666.056,2340.819l105.73,5.035v4.741l-103.362-4.893Z" transform="translate(-1157.643 -1871.99)" fill="#e3e4e2"/>
      <path id="Path_1149" data-name="Path 1149" d="M2805.148,2100.708,2916.574,2123V2079.48h67.391l56.247,18.047-9.552,5.837v11.669l2.652,3.716v39.8h35.554v30.771h5.309V2199.4h-4.244V2305.53h9.018v23.883h88.62v15.913h-15.392l-10.618,54.653h-9.012l8.752-54.92h-13.265v55.185h-9.549v-55.713H3106.8v55.713h-10.083v-57.837H3034.11v55.722h-13.263v-57.313H2912.067v54.463l-106.918-13.253Z" transform="translate(-1342.397 -1829.604)" fill="#e3e3e3"/>
      <path id="Path_1150" data-name="Path 1150" d="M2719.043,1951.966h116.393l-32.877,21.361H2779.7" transform="translate(-1328.433 -1808.921)" fill="#e3e3e3"/>
      <rect id="Rectangle_245" data-name="Rectangle 245" width="9.872" height="62.407" transform="translate(816.128 518.906)" fill="#ab8f8b"/>
      <path id="Path_1151" data-name="Path 1151" d="M2079.326,2398.383V2464.4h7.4V2396.79Z" transform="translate(-1224.673 -1881.068)" fill="#ab8f8b"/>
      <rect id="Rectangle_246" data-name="Rectangle 246" width="7.959" height="72.696" transform="translate(877.471 513.6)" fill="#ab8f8b"/>
      <path id="Path_1152" data-name="Path 1152" d="M2821.271,2083.579h-34.49l3.91-117.309.225-6.749,1.706-51.047h19.632Z" transform="translate(-1339.415 -1801.868)" fill="#e3e3e3"/>
      <path id="Path_1153" data-name="Path 1153" d="M1441.97,1878.859l-1,133.216-1.259,2.371-3.421,233.072h-8.055l5.307-231.884,3.448-3.186Z" transform="translate(-1119.072 -1797.064)" fill="#6a6e76"/>
      <path id="Path_1154" data-name="Path 1154" d="M1455.267,2247.186h-17.413l3.421-233.068,1.258-2.372,1-133.218v-.05l.067-1.672,4.245,135.314,3.713,3.183Z" transform="translate(-1120.63 -1796.729)" fill="#e3e4e2"/>
      <path id="Path_1155" data-name="Path 1155" d="M2784.718,2205.581v114.086h31.836v70.043l-79.589-1.951-18.577-.458-43.913-1.078-117.4-2.882V2204.524l-28.121-13.275-.265-7.158h4.247v-10.616h-4.247v-15.917h15.653v-6.1l6.106-6.1h36.612v-22.288h-24.943l29.716-18.569h168.208v42.98h38.737v7.962h21.49v30.509Z" transform="translate(-1297.554 -1833.661)" fill="#737886"/>
      <path id="Path_1156" data-name="Path 1156" d="M1879.187,2467.725l739.165,36.081v6.367l-739.165-36.086Z" transform="translate(-1192.209 -1892.571)" fill="#ebf4f8"/>
      <rect id="Rectangle_247" data-name="Rectangle 247" width="4.245" height="23.878" transform="translate(711.384 578.867)" fill="#ebf4f8"/>
      <rect id="Rectangle_248" data-name="Rectangle 248" width="4.245" height="23.878" transform="translate(740.038 578.867)" fill="#ebf4f8"/>
      <rect id="Rectangle_249" data-name="Rectangle 249" width="4.245" height="23.878" transform="translate(768.692 583.112)" fill="#ebf4f8"/>
      <rect id="Rectangle_250" data-name="Rectangle 250" width="4.245" height="23.878" transform="translate(797.346 586.296)" fill="#ebf4f8"/>
      <rect id="Rectangle_251" data-name="Rectangle 251" width="4.245" height="23.878" transform="translate(826 586.296)" fill="#ebf4f8"/>
      <rect id="Rectangle_252" data-name="Rectangle 252" width="4.245" height="23.878" transform="translate(854.654 588.418)" fill="#ebf4f8"/>
      <rect id="Rectangle_253" data-name="Rectangle 253" width="4.245" height="23.878" transform="translate(883.308 588.418)" fill="#ebf4f8"/>
      <rect id="Rectangle_254" data-name="Rectangle 254" width="4.245" height="23.878" transform="translate(911.962 591.071)" fill="#ebf4f8"/>
      <rect id="Rectangle_255" data-name="Rectangle 255" width="4.245" height="23.878" transform="translate(940.616 592.133)" fill="#ebf4f8"/>
      <rect id="Rectangle_256" data-name="Rectangle 256" width="4.245" height="23.878" transform="translate(969.27 593.725)" fill="#ebf4f8"/>
      <rect id="Rectangle_257" data-name="Rectangle 257" width="4.245" height="23.878" transform="translate(997.924 595.317)" fill="#ebf4f8"/>
      <rect id="Rectangle_258" data-name="Rectangle 258" width="4.245" height="23.878" transform="translate(1026.578 595.317)" fill="#ebf4f8"/>
      <rect id="Rectangle_259" data-name="Rectangle 259" width="4.245" height="23.878" transform="translate(1055.231 596.378)" fill="#ebf4f8"/>
      <rect id="Rectangle_260" data-name="Rectangle 260" width="4.245" height="23.878" transform="translate(1083.885 597.97)" fill="#ebf4f8"/>
      <rect id="Rectangle_261" data-name="Rectangle 261" width="4.245" height="23.878" transform="translate(1112.539 600.623)" fill="#ebf4f8"/>
      <rect id="Rectangle_262" data-name="Rectangle 262" width="4.245" height="23.878" transform="translate(1141.193 601.684)" fill="#ebf4f8"/>
      <rect id="Rectangle_263" data-name="Rectangle 263" width="4.245" height="23.878" transform="translate(1169.847 603.807)" fill="#ebf4f8"/>
      <rect id="Rectangle_264" data-name="Rectangle 264" width="4.245" height="23.878" transform="translate(1198.502 603.807)" fill="#ebf4f8"/>
      <rect id="Rectangle_265" data-name="Rectangle 265" width="4.245" height="23.878" transform="translate(1227.155 604.337)" fill="#ebf4f8"/>
      <rect id="Rectangle_266" data-name="Rectangle 266" width="4.245" height="23.878" transform="translate(1255.809 606.46)" fill="#ebf4f8"/>
      <rect id="Rectangle_267" data-name="Rectangle 267" width="4.245" height="23.878" transform="translate(1284.463 609.643)" fill="#ebf4f8"/>
      <rect id="Rectangle_268" data-name="Rectangle 268" width="4.245" height="23.878" transform="translate(1313.117 610.705)" fill="#ebf4f8"/>
      <rect id="Rectangle_269" data-name="Rectangle 269" width="4.245" height="23.878" transform="translate(1341.771 612.297)" fill="#ebf4f8"/>
      <rect id="Rectangle_270" data-name="Rectangle 270" width="4.245" height="23.878" transform="translate(1370.425 613.888)" fill="#ebf4f8"/>
      <rect id="Rectangle_271" data-name="Rectangle 271" width="4.245" height="23.878" transform="translate(1399.079 616.011)" fill="#ebf4f8"/>
      <path id="Path_1157" data-name="Path 1157" d="M2605.009,2139.015h21.76l2.122,17.514h-21.229Z" transform="translate(-1309.932 -1839.261)" fill="#08080c"/>
      <path id="Path_1158" data-name="Path 1158" d="M2767.781,2139.015h21.758l2.116,17.514h-21.222Z" transform="translate(-1336.334 -1839.261)" fill="#08080c"/>
      <path id="Path_1159" data-name="Path 1159" d="M2634.777,2139.015h33.432l2.12,17.514h-32.9Z" transform="translate(-1314.761 -1839.261)" fill="#08080c"/>
      <path id="Path_1160" data-name="Path 1160" d="M2679.111,2139.015h33.43l2.124,17.514h-32.9Z" transform="translate(-1321.949 -1839.261)" fill="#08080c"/>
      <path id="Path_1161" data-name="Path 1161" d="M2723.445,2139.015h33.431l2.121,17.514h-32.9Z" transform="translate(-1329.14 -1839.261)" fill="#08080c"/>
      <rect id="Rectangle_272" data-name="Rectangle 272" width="9.551" height="14.858" transform="translate(1321.077 371.922)" fill="#08080c"/>
      <rect id="Rectangle_273" data-name="Rectangle 273" width="9.551" height="14.858" transform="translate(1340.71 371.922)" fill="#08080c"/>
      <rect id="Rectangle_274" data-name="Rectangle 274" width="9.551" height="14.858" transform="translate(1357.69 371.922)" fill="#08080c"/>
      <rect id="Rectangle_275" data-name="Rectangle 275" width="9.551" height="14.858" transform="translate(1383.691 371.922)" fill="#08080c"/>
      <rect id="Rectangle_276" data-name="Rectangle 276" width="9.551" height="14.858" transform="translate(1401.202 371.922)" fill="#08080c"/>
      <rect id="Rectangle_277" data-name="Rectangle 277" width="9.551" height="14.858" transform="translate(1381.038 441.434)" fill="#08080c"/>
      <rect id="Rectangle_278" data-name="Rectangle 278" width="9.551" height="14.858" transform="translate(1357.69 441.434)" fill="#08080c"/>
      <rect id="Rectangle_279" data-name="Rectangle 279" width="9.551" height="14.858" transform="translate(1302.505 441.434)" fill="#08080c"/>
      <rect id="Rectangle_280" data-name="Rectangle 280" width="9.551" height="14.858" transform="translate(1279.157 441.434)" fill="#08080c"/>
      <rect id="Rectangle_281" data-name="Rectangle 281" width="9.551" height="14.858" transform="translate(1434.631 441.434)" fill="#08080c"/>
      <rect id="Rectangle_282" data-name="Rectangle 282" width="9.551" height="14.858" transform="translate(1460.632 441.434)" fill="#08080c"/>
      <rect id="Rectangle_283" data-name="Rectangle 283" width="9.551" height="14.858" transform="translate(1420.835 371.922)" fill="#08080c"/>
      <rect id="Rectangle_284" data-name="Rectangle 284" width="5.837" height="12.735" transform="translate(1510.511 372.452)" fill="#08080c"/>
      <rect id="Rectangle_285" data-name="Rectangle 285" width="5.837" height="12.735" transform="translate(1568.88 377.228)" fill="#08080c"/>
      <rect id="Rectangle_286" data-name="Rectangle 286" width="5.837" height="12.735" transform="translate(1583.208 377.228)" fill="#08080c"/>
      <rect id="Rectangle_287" data-name="Rectangle 287" width="5.837" height="12.735" transform="translate(1644.76 382.534)" fill="#08080c"/>
      <rect id="Rectangle_288" data-name="Rectangle 288" width="5.837" height="12.735" transform="translate(1658.557 383.595)" fill="#08080c"/>
      <rect id="Rectangle_289" data-name="Rectangle 289" width="5.837" height="12.735" transform="translate(1681.904 385.718)" fill="#08080c"/>
      <rect id="Rectangle_290" data-name="Rectangle 290" width="5.837" height="12.735" transform="translate(1695.701 386.779)" fill="#08080c"/>
      <rect id="Rectangle_291" data-name="Rectangle 291" width="5.837" height="12.735" transform="translate(1631.495 451.516)" fill="#08080c"/>
      <rect id="Rectangle_292" data-name="Rectangle 292" width="5.837" height="12.735" transform="translate(1645.291 452.577)" fill="#08080c"/>
      <rect id="Rectangle_293" data-name="Rectangle 293" width="5.837" height="12.735" transform="translate(1555.084 447.271)" fill="#08080c"/>
      <rect id="Rectangle_294" data-name="Rectangle 294" width="5.837" height="12.735" transform="translate(1509.45 442.495)" fill="#08080c"/>
      <rect id="Rectangle_295" data-name="Rectangle 295" width="5.837" height="12.735" transform="translate(1568.88 448.332)" fill="#08080c"/>
      <path id="Path_1162" data-name="Path 1162" d="M2608.809,2100.228v-10.614H2768v2.654H2610.93v7.96Z" transform="translate(-1310.548 -1831.246)" fill="#e2e2e3"/>
      <path id="Path_1163" data-name="Path 1163" d="M2796,2089.967v8.721h2.4l-.044-8.492Z" transform="translate(-1340.911 -1831.304)" fill="#e2e2e3"/>
      <path id="Path_1164" data-name="Path 1164" d="M2746.584,2360.055v68.7l-43.913-1.078-.126-67.619Z" transform="translate(-1325.757 -1875.11)" fill="#d6d6d7"/>
      <path id="Path_1165" data-name="Path 1165" d="M2773.686,2360.055v69.15l-18.573-.453v-68.7Z" transform="translate(-1334.278 -1875.11)" fill="#81808f"/>
      <path id="Path_1166" data-name="Path 1166" d="M2259.979,2412.513l252.624,16.13v4.652l-256.581-14.608-1.547-6.186" transform="translate(-1253.081 -1883.614)" fill="#8b7d7d"/>
      <path id="Path_1167" data-name="Path 1167" d="M1644.5,2375.788l321.072,5.093v4.643l-321.072-3.563-1.55-6.2" transform="translate(-1153.896 -1877.658)" fill="#8b7d7d"/>
      <path id="Path_1168" data-name="Path 1168" d="M1644.5,2384.649l321.072,5.1v4.641l-321.072-3.563-1.55-6.191" transform="translate(-1153.896 -1879.096)" fill="#8b7d7d"/>
      <path id="Path_1169" data-name="Path 1169" d="M1066.146,2267c17.209.166,108.175-.021,125.311-.06a2.786,2.786,0,0,1,2.787,2.788v.053a2.785,2.785,0,0,1-2.782,2.785H1066.121a2.786,2.786,0,0,1-2.783-2.785h0A2.782,2.782,0,0,1,1066.146,2267Z" transform="translate(-1059.889 -1860.009)" fill="#e3e4e2"/>
      <rect id="Rectangle_296" data-name="Rectangle 296" width="3.332" height="30.946" transform="translate(4.339 409.748)" fill="#e3e4e2"/>
      <rect id="Rectangle_297" data-name="Rectangle 297" width="3.332" height="30.946" transform="translate(20.332 409.748)" fill="#e3e4e2"/>
      <rect id="Rectangle_298" data-name="Rectangle 298" width="3.332" height="30.946" transform="translate(61.425 409.748)" fill="#e3e4e2"/>
      <rect id="Rectangle_299" data-name="Rectangle 299" width="3.332" height="30.946" transform="translate(88.08 409.748)" fill="#e3e4e2"/>
      <rect id="Rectangle_300" data-name="Rectangle 300" width="3.332" height="30.946" transform="translate(115.179 409.748)" fill="#e3e4e2"/>
      <rect id="Rectangle_301" data-name="Rectangle 301" width="3.332" height="30.946" transform="translate(125.619 409.748)" fill="#e3e4e2"/>
      <path id="Path_1170" data-name="Path 1170" d="M3018.588,2079.48l56.251,18.047-9.554,5.837-46.7-13.651" transform="translate(-1377.012 -1829.604)" fill="#737886"/>
      <path id="Path_1171" data-name="Path 1171" d="M2779.506,1966.577l-.222,6.751-62.8-21.361h34.347Z" transform="translate(-1328.013 -1808.921)" fill="#a9acb3"/>
      <path id="Path_1172" data-name="Path 1172" d="M2740.958,2031.81h84.552l-23.88,15.513h-16.6" transform="translate(-1331.986 -1821.87)" fill="#e3e3e3"/>
      <path id="Path_1173" data-name="Path 1173" d="M2784.885,2042.42l-.163,4.9L2739.1,2031.81h24.957Z" transform="translate(-1331.681 -1821.87)" fill="#a9acb3"/>
      <path id="Path_1174" data-name="Path 1174" d="M2752.781,1895.526h74.645l-21.082,13.7h-14.657" transform="translate(-1333.899 -1799.766)" fill="#e3e3e3"/>
      <path id="Path_1175" data-name="Path 1175" d="M2787.113,1902.981l-.157,4.744-35.818-12.2h22.034Z" transform="translate(-1333.634 -1799.766)" fill="#a9acb3"/>
      <rect id="Rectangle_302" data-name="Rectangle 302" width="13.994" height="30.32" transform="translate(1455.172 66.859)" fill="#e3e3e3"/>
      <path id="Path_1176" data-name="Path 1176" d="M2817.7,1856.277H2784.83v-20.434a16.437,16.437,0,0,1,16.435-16.437h0a16.439,16.439,0,0,1,16.439,16.437Z" transform="translate(-1339.1 -1787.421)" fill="#a9acb3"/>
      <path id="Path_1177" data-name="Path 1177" d="M2827.949,1878.411l3.164-97.181,1.549,97.181Z" transform="translate(-1346.091 -1781.23)" fill="#e3e3e3"/>
      <path id="Path_1178" data-name="Path 1178" d="M3029.357,2171.3v-42.646c0-4.661,2.144-13.1,13.794-13.1l24.754,7.548v42.206l-5.333,7.109Z" transform="translate(-1378.76 -1835.454)" fill="#6c575f"/>
      <rect id="Rectangle_303" data-name="Rectangle 303" width="4.442" height="136.384" transform="translate(1620.068 357.619)" fill="#bcbcbd"/>
      <path id="Path_1179" data-name="Path 1179" d="M2938.706,2089.556c1.147-.709,65.563,0,65.563,0v75.7h-3.328v-73.748H2938.3Z" transform="translate(-1363.988 -1831.188)" fill="#bcbcbd"/>
      <path id="Path_1180" data-name="Path 1180" d="M2243.32,2404.872c-.05,2.057,42.355,72.58,42.355,72.58h9.473l-45.957-74.063Z" transform="translate(-1251.27 -1882.135)" fill="#8b7d7d"/>
      <path id="Path_1181" data-name="Path 1181" d="M3145.234,2497.81c-6.25,7.378-49.911,97.5-67.552,114.6s-309.9,20.864-309.9,20.864,127.313-22.457,169.963-39.957,90.177-86.417,123.053-88.607S3145.234,2497.81,3145.234,2497.81Z" transform="translate(-1336.334 -1897.452)" fill="#aa1717"/>
      <path id="Path_1182" data-name="Path 1182" d="M1881.086,2272.019v18.621h7.686v-18.055Z" transform="translate(-1192.52 -1860.831)" fill="#8b7d7d"/>
      <rect id="Rectangle_304" data-name="Rectangle 304" width="75.522" height="20.608" transform="translate(681.817 428.255)" fill="#e3e4e2"/>
      <path id="Path_1183" data-name="Path 1183" d="M1785.451,2316.986h209.064v70.048l-209.064-5.837Z" transform="translate(-1177.009 -1868.124)" fill="#898893"/>
      <path id="Path_1184" data-name="Path 1184" d="M1141,2261l242.233-211.487L1144.41,2265.435h-5.775Z" transform="translate(-1072.101 -1824.742)" fill="#898893"/>
      <path id="Path_1185" data-name="Path 1185" d="M1422.714,2082.941c-.457,1.771-40.695,194.133-40.695,194.133h5.773l37.423-191.9Z" transform="translate(-1111.576 -1830.166)" fill="#898893"/>
      <path id="Path_1186" data-name="Path 1186" d="M1421.434,2012.417h17.178v10.927h-17.178v-10.927Z" transform="translate(-1117.97 -1818.724)" fill="#6a6e76"/>
      <ellipse id="Ellipse_10" data-name="Ellipse 10" cx="4.942" cy="6.719" rx="4.942" ry="6.719" transform="translate(290.879 189.249)" fill="#6a6e76"/>
      <path id="Path_1187" data-name="Path 1187" d="M1416.724,2013.479h4.776s.777,8.107,0,8.107h-8.329" transform="translate(-1116.628 -1818.897)" fill="#6a6e76"/>
      <path id="Path_1188" data-name="Path 1188" d="M1410.785,2021.634l20.543,20.88.945-3.668-19.488-18.21Z" transform="translate(-1116.242 -1820.06)" fill="#6a6e76"/>
      <path id="Path_1189" data-name="Path 1189" d="M1061.518,2305.743c38.563-.559,267.611-2.666,498.427,21.042,0,0,113.021,75.882,186.25,114.62v24.411s385.768,22.283,733.86,33.958l.53-23.349,58.319-55.092,50.46-.1v7.958s60.492,4.774,145.392,7.431l12.205-6.365s72.162,4.769,161.841,11.668c0,0-38.735,96.047-93.921,152.821,0,0-548.67,66.33-1168.445,28.658s-479.689-75.88-453.156-104c26.165-27.734-35.927-116.115-133.341-209.662A2.324,2.324,0,0,1,1061.518,2305.743Z" transform="translate(-1059.221 -1866.255)" fill="#c4201b"/>
      <path id="Path_1190" data-name="Path 1190" d="M1107.129,2326.488s83.4,4.278,181.476,14.856A1178.6,1178.6,0,0,0,1513.59,2344c-20.24,17.4-45.29,44.91-52,82.781-10.668,60.195,34.756,91.5,18,122.586-23.763,44.109-148.872,43.613-199.912-10.659-5.711-6.077-11.9-14.884-24.279-32.5-28.145-40.052-42.374-68.981-51.167-84.207C1189.043,2395.694,1161.469,2360.749,1107.129,2326.488Z" transform="translate(-1066.991 -1869.665)" fill="#aa1717"/>
      <path id="Path_1191" data-name="Path 1191" d="M3167.512,2134.582h-74.821l15.917,36.084,7.112-.494-14.269-29.487h59.96l31.835,80.125,12.737,68.451-74.821-91.8h-13.267v8.487h12.734l76.94,96.576,19.952,59.959v50.677h9.5V2309.687Zm46.694,160.246-10.083-52,29.713,72.7Z" transform="translate(-1389.031 -1838.541)" fill="#dfdfe2"/>
      <path id="Path_1192" data-name="Path 1192" d="M2262.409,2337.991c1.181.3,44.721,0,44.721,0l34.06,4.445v54.231h-5.923v-41.251l-8.124-8.12-16.22-1.9v47.144h-6.153v-46.847h-8.3v47.088h-6.214v-46.2h-17.923l-4.963,4.964v38.895h-4.958Z" transform="translate(-1254.367 -1871.532)" fill="#cbcaca"/>
      <rect id="Rectangle_305" data-name="Rectangle 305" width="20.139" height="29.551" transform="translate(1125.028 499.334)" fill="#cbcaca"/>
      <path id="Path_1193" data-name="Path 1193" d="M2442.071,2380.489l-15.992-3.259v29.551h15.992Z" transform="translate(-1280.914 -1877.895)" fill="#e3e4e2"/>
      <path id="Rectangle_306" data-name="Rectangle 306" d="M11,0h0a11,11,0,0,1,11,11V36.416a0,0,0,0,1,0,0H0a0,0,0,0,1,0,0V11A11,11,0,0,1,11,0Z" transform="translate(907.717 480.898)" fill="#e3e4e2"/>
      <path id="Rectangle_307" data-name="Rectangle 307" d="M11,0h0a11,11,0,0,1,11,11V36.416a0,0,0,0,1,0,0H0a0,0,0,0,1,0,0V11A11,11,0,0,1,11,0Z" transform="translate(931.743 482.49)" fill="#e3e4e2"/>
      <path id="Path_1194" data-name="Path 1194" d="M1881.087,2272.019s217.026,15.92,234.538,16.984,27.062,2.651,35.554,12.736c3.7,4.384,5.835,14.855,5.835,24.4v52h-10.346s-2.754-45.107-2.389-54.65c.532-13.8-13.529-19.9-27.857-21.49s-235.069-24.943-235.069-24.943Z" transform="translate(-1192.521 -1860.831)" fill="#8b7d7d"/>
      <path id="Path_1195" data-name="Path 1195" d="M2118.182,2390.481l371.971,23.061v6.365l-371.971-20.96-2.121-8.49" transform="translate(-1230.632 -1880.041)" fill="#8b7d7d"/>
      <path id="Path_1196" data-name="Path 1196" d="M2377.3,2381.471v23.992h2.884v-23.036Z" transform="translate(-1273.002 -1878.584)" fill="#e3e4e2"/>
      <path id="Path_1197" data-name="Path 1197" d="M2123.239,2400.874c-.054,3.443,0,41.054,0,41.054h-2.053v-41.054Z" transform="translate(-1231.461 -1881.729)" fill="#433f3d"/>
      <path id="Path_1198" data-name="Path 1198" d="M2131.977,2400.874c-.044,3.443,0,41.054,0,41.054h-2.042v-41.054Z" transform="translate(-1232.883 -1881.729)" fill="#433f3d"/>
      <path id="Path_1199" data-name="Path 1199" d="M2140.732,2400.874c-.05,3.443,0,41.054,0,41.054h-2.047v-41.054Z" transform="translate(-1234.298 -1881.729)" fill="#433f3d"/>
      <path id="Path_1200" data-name="Path 1200" d="M2034.991,2316.986v70.048h70.044v-64.742Z" transform="translate(-1217.482 -1868.124)" fill="#e3e4e2"/>
    </g>
    <path id="Path_1201" data-name="Path 1201" d="M2356.625,2654.781c-117.809,6.406-235.3,19.8-353.419,18.329-127.851-1.6-251.89-22.426-374.441-60.317-3.282-1.021-6.443-2.272-9.612-3.522a2.7,2.7,0,0,0-.3-.093l-.068-.017a2.438,2.438,0,0,0-2.329,3.936c11.2,14.5,22.6,28.842,34.005,43.176a2.289,2.289,0,0,0,1.425.846c246.252,41.509,498.346,39,745.553.038,2.947-.466,2.472-5.084-.5-4.871q-20.133,1.414-40.312,2.5Z" transform="translate(-1171.634 -1940.387)" fill="#aa1717"/>
    <path id="Path_1202" data-name="Path 1202" d="M3003.281,2490.953c3.547.031,139.658,9.96,161.23,0a710.047,710.047,0,0,0-37.62,74.132c-16.773,39.186-79.949,49.839-125.99,44.513s-134.672.667-110.018-25.32,92.978-26.843,129.119-40.076S3003.281,2490.953,3003.281,2490.953Z" transform="translate(-1377.728 -1921.227)" fill="#aa1717"/>
  </g>
</svg>
